<svg version="1.1" viewBox="0.0 0.0 960.0 540.0" fill="none" stroke="none" stroke-linecap="square" stroke-miterlimit="10" xmlns:xlink="http://www.w3.org/1999/xlink" xmlns="http://www.w3.org/2000/svg"><clipPath id="p.0"><path d="m0 0l960.0 0l0 540.0l-960.0 0l0 -540.0z" clip-rule="nonzero"/></clipPath><g clip-path="url(#p.0)"><path fill="#ffffff" d="m0 0l960.0 0l0 540.0l-960.0 0z" fill-rule="evenodd"/><path fill="#000000" fill-opacity="0.0" d="m502.98447 299.16226l0 48.70865l115.811005 0l0 48.70868" fill-rule="evenodd"/><path stroke="#000000" stroke-width="1.0" stroke-linejoin="round" stroke-linecap="butt" d="m502.98447 302.95227l0 44.91864l115.811005 0l0 44.91867" fill-rule="evenodd"/><path stroke="#000000" stroke-width="1.0" stroke-linecap="butt" d="m501.33945 302.95227l0 -3.2900085l3.2900085 0l0 3.2900085l-3.2900085 0z" fill-rule="nonzero"/><path stroke="#000000" stroke-width="1.0" stroke-linecap="butt" d="m620.4405 392.78955l0 3.2900085l-3.290039 0l0 -3.2900085l3.290039 0z" fill-rule="nonzero"/><path fill="#000000" fill-opacity="0.0" d="m387.18744 396.56738l0 -48.70865l115.811035 0l0 -48.70868" fill-rule="evenodd"/><path stroke="#000000" stroke-width="1.0" stroke-linejoin="round" stroke-linecap="butt" d="m387.18747 392.7774l0 -44.9187l115.811005 0l0 -44.91861" fill-rule="evenodd"/><path stroke="#000000" stroke-width="1.0" stroke-linecap="butt" d="m388.83246 392.77737l0 3.2900085l-3.2900085 0l0 -3.2900085l3.2900085 0z" fill-rule="nonzero"/><path stroke="#000000" stroke-width="1.0" stroke-linecap="butt" d="m501.3535 302.94006l0 -3.289978l3.2900085 0l0 3.289978l-3.2900085 0z" fill-rule="nonzero"/><path fill="#000000" fill-opacity="0.0" d="m516.4239 51.630287l210.7157 0l0 80.06127l-210.7157 0z" fill-rule="evenodd"/><path stroke="#000000" stroke-width="1.0" stroke-linejoin="round" stroke-linecap="butt" d="m516.4239 51.630287l210.7157 0l0 80.06127l-210.7157 0z" fill-rule="evenodd"/><path fill="#000000" d="m592.7811 88.61717q-1.1875 0 -2.15625 -0.5q-0.953125 -0.515625 -1.53125 -1.5q-0.5625 -1.0 -0.5625 -2.453125q0 -1.4375 0.578125 -2.453125q0.578125 -1.015625 1.53125 -1.546875q0.96875 -0.546875 2.125 -0.546875q0.953125 0 1.625 0.34375q0.6875 0.34375 1.109375 0.78125l-1.015625 1.25q-0.34375 -0.28125 -0.71875 -0.484375q-0.359375 -0.203125 -0.921875 -0.203125q-1.015625 0 -1.65625 0.75q-0.640625 0.734375 -0.640625 2.046875q0 1.328125 0.609375 2.078125q0.625 0.75 1.828125 0.75q0.265625 0 0.515625 -0.0625q0.265625 -0.078125 0.421875 -0.203125l0 -1.5l-1.4375 0l0 -1.59375l3.171875 0l0 4.0q-0.453125 0.4375 -1.21875 0.75q-0.75 0.296875 -1.65625 0.296875zm7.472046 0q-0.953125 0 -1.71875 -0.40625q-0.75 -0.421875 -1.1875 -1.1875q-0.4375 -0.78125 -0.4375 -1.875q0 -1.078125 0.4375 -1.84375q0.453125 -0.78125 1.171875 -1.1875q0.71875 -0.421875 1.5 -0.421875q0.953125 0 1.5625 0.421875q0.625 0.40625 0.9375 1.125q0.3125 0.71875 0.3125 1.625q0 0.25 -0.03125 0.5q-0.015625 0.234375 -0.046875 0.359375l-3.953125 0q0.125 0.71875 0.59375 1.0625q0.46875 0.34375 1.125 0.34375q0.703125 0 1.421875 -0.4375l0.65625 1.171875q-0.5 0.359375 -1.140625 0.5625q-0.625 0.1875 -1.203125 0.1875zm-1.46875 -4.1875l2.390625 0q0 -0.546875 -0.265625 -0.890625q-0.265625 -0.359375 -0.84375 -0.359375q-0.453125 0 -0.8125 0.3125q-0.359375 0.3125 -0.46875 0.9375zm1.359375 -3.59375l-0.96875 -0.953125l2.046875 -2.4375l1.328125 1.296875l-2.40625 2.09375zm4.0446167 7.625l0 -6.609375l1.609375 0l0.125 1.15625l0.0625 0q0.359375 -0.671875 0.859375 -0.984375q0.515625 -0.328125 1.015625 -0.328125q0.28125 0 0.46875 0.03125q0.1875 0.03125 0.3125 0.09375l-0.3125 1.703125q-0.171875 -0.0625 -0.34375 -0.078125q-0.171875 -0.03125 -0.375 -0.03125q-0.375 0 -0.78125 0.28125q-0.40625 0.265625 -0.671875 0.921875l0 3.84375l-1.96875 0zm6.132263 2.578125q-0.28125 0 -0.515625 -0.046875q-0.21875 -0.03125 -0.40625 -0.078125l0.34375 -1.5q0.09375 0.015625 0.203125 0.046875q0.125 0.046875 0.234375 0.046875q0.5 0 0.765625 -0.25q0.265625 -0.234375 0.390625 -0.625l0.09375 -0.34375l-2.546875 -6.4375l1.96875 0l0.953125 2.84375q0.140625 0.453125 0.265625 0.921875q0.125 0.453125 0.25 0.953125l0.0625 0q0.109375 -0.46875 0.21875 -0.9375q0.109375 -0.484375 0.234375 -0.9375l0.796875 -2.84375l1.875 0l-2.296875 6.671875q-0.296875 0.828125 -0.671875 1.390625q-0.375 0.578125 -0.90625 0.84375q-0.515625 0.28125 -1.3125 0.28125zm12.672058 -2.421875q-1.09375 0 -2.015625 -0.5q-0.921875 -0.515625 -1.484375 -1.5q-0.546875 -1.0 -0.546875 -2.453125q0 -1.4375 0.5625 -2.453125q0.578125 -1.015625 1.515625 -1.546875q0.9375 -0.546875 2.03125 -0.546875q0.84375 0 1.5 0.34375q0.671875 0.328125 1.109375 0.78125l-1.03125 1.25q-0.34375 -0.296875 -0.71875 -0.484375q-0.359375 -0.203125 -0.8125 -0.203125q-0.59375 0 -1.078125 0.34375q-0.484375 0.328125 -0.78125 0.953125q-0.28125 0.625 -0.28125 1.5q0 1.328125 0.5625 2.078125q0.578125 0.75 1.546875 0.75q0.53125 0 0.953125 -0.234375q0.421875 -0.25 0.734375 -0.578125l1.046875 1.21875q-1.09375 1.28125 -2.8125 1.28125zm5.631958 0q-0.90625 0 -1.4375 -0.578125q-0.53125 -0.578125 -0.53125 -1.421875q0 -1.03125 0.875 -1.609375q0.875 -0.59375 2.84375 -0.796875q-0.03125 -0.4375 -0.265625 -0.703125q-0.234375 -0.265625 -0.78125 -0.265625q-0.40625 0 -0.84375 0.171875q-0.421875 0.15625 -0.890625 0.4375l-0.71875 -1.296875q0.625 -0.390625 1.34375 -0.625q0.71875 -0.234375 1.484375 -0.234375q1.265625 0 1.9375 0.734375q0.6875 0.734375 0.6875 2.25l0 3.78125l-1.59375 0l-0.140625 -0.6875l-0.046875 0q-0.421875 0.375 -0.890625 0.609375q-0.46875 0.234375 -1.03125 0.234375zm0.671875 -1.515625q0.328125 0 0.578125 -0.15625q0.25 -0.15625 0.5 -0.40625l0 -1.15625q-1.046875 0.125 -1.453125 0.421875q-0.390625 0.28125 -0.390625 0.671875q0 0.3125 0.203125 0.46875q0.21875 0.15625 0.5625 0.15625zm6.6332397 1.515625q-0.65625 0 -1.34375 -0.25q-0.6875 -0.25 -1.1875 -0.671875l0.875 -1.21875q0.453125 0.328125 0.875 0.515625q0.421875 0.171875 0.828125 0.171875q0.453125 0 0.640625 -0.140625q0.203125 -0.15625 0.203125 -0.421875q0 -0.21875 -0.203125 -0.359375q-0.1875 -0.15625 -0.5 -0.28125q-0.296875 -0.125 -0.640625 -0.265625q-0.40625 -0.15625 -0.796875 -0.390625q-0.390625 -0.25 -0.65625 -0.625q-0.265625 -0.375 -0.265625 -0.921875q0 -0.921875 0.703125 -1.484375q0.703125 -0.578125 1.828125 -0.578125q0.765625 0 1.34375 0.265625q0.578125 0.25 0.984375 0.5625l-0.875 1.171875q-0.34375 -0.265625 -0.703125 -0.40625q-0.34375 -0.140625 -0.6875 -0.140625q-0.75 0 -0.75 0.515625q0 0.3125 0.375 0.484375q0.375 0.171875 0.890625 0.359375q0.421875 0.140625 0.828125 0.375q0.40625 0.234375 0.671875 0.625q0.28125 0.375 0.28125 0.984375q0 0.890625 -0.703125 1.515625q-0.6875 0.609375 -2.015625 0.609375zm3.951233 -0.15625l0 -6.609375l1.96875 0l0 6.609375l-1.96875 0zm0.984375 -7.578125q-0.5 0 -0.8125 -0.28125q-0.296875 -0.28125 -0.296875 -0.75q0 -0.46875 0.296875 -0.75q0.3125 -0.28125 0.8125 -0.28125q0.5 0 0.796875 0.28125q0.3125 0.28125 0.3125 0.75q0 0.46875 -0.3125 0.75q-0.296875 0.28125 -0.796875 0.28125zm5.662903 7.734375q-0.953125 0 -1.71875 -0.40625q-0.75 -0.421875 -1.1875 -1.1875q-0.4375 -0.78125 -0.4375 -1.875q0 -1.078125 0.4375 -1.84375q0.453125 -0.78125 1.171875 -1.1875q0.71875 -0.421875 1.5 -0.421875q0.953125 0 1.5625 0.421875q0.625 0.40625 0.9375 1.125q0.3125 0.71875 0.3125 1.625q0 0.25 -0.03125 0.5q-0.015625 0.234375 -0.046875 0.359375l-3.953125 0q0.125 0.71875 0.59375 1.0625q0.46875 0.34375 1.125 0.34375q0.703125 0 1.421875 -0.4375l0.65625 1.171875q-0.5 0.359375 -1.140625 0.5625q-0.625 0.1875 -1.203125 0.1875zm-1.46875 -4.1875l2.390625 0q0 -0.546875 -0.265625 -0.890625q-0.265625 -0.359375 -0.84375 -0.359375q-0.453125 0 -0.8125 0.3125q-0.359375 0.3125 -0.46875 0.9375zm4.951233 4.03125l0 -1.046875l2.78125 -4.03125l-2.46875 0l0 -1.53125l4.90625 0l0 1.03125l-2.765625 4.046875l2.859375 0l0 1.53125l-5.3125 0z" fill-rule="nonzero"/><path fill="#000000" d="m580.0493 104.61717q-0.859375 0 -1.5625 -0.390625q-0.6875 -0.40625 -1.09375 -1.15625q-0.390625 -0.765625 -0.390625 -1.828125q0 -1.09375 0.4375 -1.859375q0.4375 -0.765625 1.140625 -1.15625q0.71875 -0.40625 1.546875 -0.40625q0.640625 0 1.09375 0.234375q0.46875 0.21875 0.796875 0.53125l-0.5625 0.71875q-0.28125 -0.25 -0.59375 -0.40625q-0.3125 -0.171875 -0.703125 -0.171875q-0.578125 0 -1.046875 0.3125q-0.453125 0.3125 -0.71875 0.890625q-0.25 0.5625 -0.25 1.3125q0 1.09375 0.546875 1.78125q0.5625 0.6875 1.453125 0.6875q0.453125 0 0.828125 -0.1875q0.390625 -0.203125 0.6875 -0.46875l0.484375 0.734375q-0.453125 0.390625 -0.984375 0.609375q-0.53125 0.21875 -1.109375 0.21875zm5.7507324 0q-0.78125 0 -1.46875 -0.390625q-0.6875 -0.40625 -1.109375 -1.15625q-0.421875 -0.765625 -0.421875 -1.828125q0 -1.09375 0.421875 -1.859375q0.421875 -0.765625 1.109375 -1.15625q0.6875 -0.40625 1.46875 -0.40625q0.796875 0 1.46875 0.40625q0.6875 0.390625 1.109375 1.15625q0.421875 0.765625 0.421875 1.859375q0 1.0625 -0.421875 1.828125q-0.421875 0.75 -1.109375 1.15625q-0.671875 0.390625 -1.46875 0.390625zm0 -0.90625q0.84375 0 1.359375 -0.6875q0.515625 -0.6875 0.515625 -1.78125q0 -1.125 -0.515625 -1.8125q-0.515625 -0.703125 -1.359375 -0.703125q-0.828125 0 -1.34375 0.703125q-0.515625 0.6875 -0.515625 1.8125q0 1.09375 0.515625 1.78125q0.515625 0.6875 1.34375 0.6875zm6.8269043 -2.171875l0 -0.84375l3.0625 0l0 0.84375l-3.0625 0zm7.357544 2.921875l0 -6.484375l0.90625 0l0.09375 1.1875l0.03125 0q0.34375 -0.625 0.8125 -0.984375q0.484375 -0.359375 1.03125 -0.359375q0.390625 0 0.703125 0.140625l-0.21875 0.953125q-0.15625 -0.046875 -0.296875 -0.078125q-0.125 -0.03125 -0.328125 -0.03125q-0.421875 0 -0.875 0.34375q-0.4375 0.328125 -0.765625 1.15625l0 4.15625l-1.09375 0zm7.116516 0.15625q-0.859375 0 -1.578125 -0.40625q-0.703125 -0.40625 -1.125 -1.15625q-0.40625 -0.765625 -0.40625 -1.8125q0 -1.078125 0.421875 -1.828125q0.421875 -0.765625 1.078125 -1.171875q0.671875 -0.421875 1.40625 -0.421875q1.25 0 1.921875 0.828125q0.671875 0.828125 0.671875 2.21875q0 0.171875 -0.015625 0.34375q0 0.15625 -0.03125 0.28125l-4.375 0q0.078125 1.015625 0.65625 1.640625q0.578125 0.609375 1.515625 0.609375q0.453125 0 0.84375 -0.140625q0.40625 -0.140625 0.765625 -0.359375l0.375 0.71875q-0.40625 0.265625 -0.9375 0.46875q-0.515625 0.1875 -1.1875 0.1875zm-2.046875 -3.921875l3.46875 0q0 -0.984375 -0.421875 -1.484375q-0.40625 -0.515625 -1.171875 -0.515625q-0.6875 0 -1.234375 0.53125q-0.53125 0.515625 -0.640625 1.46875zm7.720093 3.921875q-0.6875 0 -1.3125 -0.25q-0.625 -0.265625 -1.09375 -0.640625l0.546875 -0.734375q0.421875 0.328125 0.875 0.5625q0.453125 0.21875 1.03125 0.21875q0.640625 0 0.953125 -0.296875q0.328125 -0.3125 0.328125 -0.71875q0 -0.34375 -0.21875 -0.5625q-0.21875 -0.234375 -0.5625 -0.375q-0.34375 -0.15625 -0.703125 -0.296875q-0.453125 -0.171875 -0.890625 -0.390625q-0.4375 -0.21875 -0.71875 -0.5625q-0.28125 -0.359375 -0.28125 -0.90625q0 -0.78125 0.59375 -1.3125q0.59375 -0.53125 1.640625 -0.53125q0.609375 0 1.125 0.21875q0.515625 0.21875 0.890625 0.515625l-0.53125 0.6875q-0.328125 -0.25 -0.6875 -0.40625q-0.359375 -0.15625 -0.796875 -0.15625q-0.609375 0 -0.90625 0.28125q-0.28125 0.28125 -0.28125 0.65625q0 0.296875 0.203125 0.5q0.203125 0.1875 0.515625 0.328125q0.328125 0.140625 0.6875 0.28125q0.46875 0.171875 0.921875 0.390625q0.453125 0.21875 0.75 0.59375q0.296875 0.359375 0.296875 0.984375q0 0.515625 -0.28125 0.953125q-0.265625 0.4375 -0.796875 0.703125q-0.515625 0.265625 -1.296875 0.265625zm3.8969727 2.578125l0 -9.21875l0.90625 0l0.09375 0.75l0.03125 0q0.453125 -0.375 0.96875 -0.640625q0.53125 -0.265625 1.109375 -0.265625q1.25 0 1.890625 0.90625q0.65625 0.890625 0.65625 2.40625q0 1.09375 -0.390625 1.875q-0.390625 0.78125 -1.03125 1.203125q-0.625 0.40625 -1.375 0.40625q-0.453125 0 -0.90625 -0.1875q-0.4375 -0.203125 -0.890625 -0.5625l0.03125 1.140625l0 2.1875l-1.09375 0zm2.671875 -3.5q0.8125 0 1.328125 -0.671875q0.53125 -0.6875 0.53125 -1.890625q0 -1.0625 -0.390625 -1.71875q-0.390625 -0.671875 -1.3125 -0.671875q-0.421875 0 -0.84375 0.234375q-0.40625 0.21875 -0.890625 0.640625l0 3.40625q0.4375 0.375 0.84375 0.53125q0.421875 0.140625 0.734375 0.140625zm7.2408447 0.921875q-0.78125 0 -1.46875 -0.390625q-0.6875 -0.40625 -1.109375 -1.15625q-0.421875 -0.765625 -0.421875 -1.828125q0 -1.09375 0.421875 -1.859375q0.421875 -0.765625 1.109375 -1.15625q0.6875 -0.40625 1.46875 -0.40625q0.796875 0 1.46875 0.40625q0.6875 0.390625 1.109375 1.15625q0.421875 0.765625 0.421875 1.859375q0 1.0625 -0.421875 1.828125q-0.421875 0.75 -1.109375 1.15625q-0.671875 0.390625 -1.46875 0.390625zm0 -0.90625q0.84375 0 1.359375 -0.6875q0.515625 -0.6875 0.515625 -1.78125q0 -1.125 -0.515625 -1.8125q-0.515625 -0.703125 -1.359375 -0.703125q-0.828125 0 -1.34375 0.703125q-0.515625 0.6875 -0.515625 1.8125q0 1.09375 0.515625 1.78125q0.515625 0.6875 1.34375 0.6875zm4.708191 0.75l0 -6.484375l0.90625 0l0.09375 0.9375l0.03125 0q0.46875 -0.46875 0.984375 -0.78125q0.53125 -0.3125 1.203125 -0.3125q1.015625 0 1.484375 0.65625q0.484375 0.640625 0.484375 1.875l0 4.109375l-1.09375 0l0 -3.953125q0 -0.90625 -0.296875 -1.3125q-0.296875 -0.421875 -0.9375 -0.421875q-0.484375 0 -0.890625 0.25q-0.390625 0.25 -0.875 0.75l0 4.6875l-1.09375 0zm8.977966 0.15625q-0.6875 0 -1.3125 -0.25q-0.625 -0.265625 -1.09375 -0.640625l0.546875 -0.734375q0.421875 0.328125 0.875 0.5625q0.453125 0.21875 1.03125 0.21875q0.640625 0 0.953125 -0.296875q0.328125 -0.3125 0.328125 -0.71875q0 -0.34375 -0.21875 -0.5625q-0.21875 -0.234375 -0.5625 -0.375q-0.34375 -0.15625 -0.703125 -0.296875q-0.453125 -0.171875 -0.890625 -0.390625q-0.4375 -0.21875 -0.71875 -0.5625q-0.28125 -0.359375 -0.28125 -0.90625q0 -0.78125 0.59375 -1.3125q0.59375 -0.53125 1.640625 -0.53125q0.609375 0 1.125 0.21875q0.515625 0.21875 0.890625 0.515625l-0.53125 0.6875q-0.328125 -0.25 -0.6875 -0.40625q-0.359375 -0.15625 -0.796875 -0.15625q-0.609375 0 -0.90625 0.28125q-0.28125 0.28125 -0.28125 0.65625q0 0.296875 0.203125 0.5q0.203125 0.1875 0.515625 0.328125q0.328125 0.140625 0.6875 0.28125q0.46875 0.171875 0.921875 0.390625q0.453125 0.21875 0.75 0.59375q0.296875 0.359375 0.296875 0.984375q0 0.515625 -0.28125 0.953125q-0.265625 0.4375 -0.796875 0.703125q-0.515625 0.265625 -1.296875 0.265625zm5.3812866 0q-0.8125 0 -1.359375 -0.484375q-0.53125 -0.484375 -0.53125 -1.34375q0 -1.078125 0.953125 -1.640625q0.953125 -0.5625 3.03125 -0.796875q0 -0.40625 -0.125 -0.78125q-0.109375 -0.375 -0.40625 -0.609375q-0.28125 -0.234375 -0.8125 -0.234375q-0.5625 0 -1.0625 0.21875q-0.484375 0.21875 -0.859375 0.484375l-0.4375 -0.765625q0.453125 -0.296875 1.109375 -0.5625q0.671875 -0.28125 1.4375 -0.28125q1.1875 0 1.71875 0.734375q0.53125 0.71875 0.53125 1.9375l0 3.96875l-0.90625 0l-0.09375 -0.765625l-0.03125 0q-0.453125 0.359375 -1.0 0.640625q-0.53125 0.28125 -1.15625 0.28125zm0.328125 -0.875q0.46875 0 0.875 -0.21875q0.421875 -0.234375 0.890625 -0.65625l0 -1.796875q-1.625 0.203125 -2.265625 0.609375q-0.640625 0.390625 -0.640625 1.015625q0 0.546875 0.328125 0.796875q0.328125 0.25 0.8125 0.25zm7.764221 0.875q-0.453125 0 -0.9375 -0.21875q-0.484375 -0.21875 -0.90625 -0.609375l-0.046875 0l-0.09375 0.671875l-0.875 0l0 -9.484375l1.09375 0l0 2.578125l-0.03125 1.171875q0.4375 -0.390625 0.96875 -0.640625q0.53125 -0.265625 1.0625 -0.265625q1.265625 0 1.90625 0.90625q0.65625 0.890625 0.65625 2.390625q0 1.109375 -0.390625 1.890625q-0.390625 0.78125 -1.03125 1.203125q-0.625 0.40625 -1.375 0.40625zm-0.1875 -0.921875q0.8125 0 1.328125 -0.671875q0.53125 -0.6875 0.53125 -1.890625q0 -1.0625 -0.390625 -1.71875q-0.390625 -0.671875 -1.3125 -0.671875q-0.421875 0 -0.84375 0.234375q-0.421875 0.21875 -0.890625 0.640625l0 3.40625q0.421875 0.375 0.84375 0.53125q0.421875 0.140625 0.734375 0.140625zm5.8547974 0.921875q-0.609375 0 -0.890625 -0.375q-0.265625 -0.375 -0.265625 -1.09375l0 -8.171875l1.09375 0l0 8.265625q0 0.25 0.09375 0.359375q0.09375 0.109375 0.21875 0.109375q0.046875 0 0.09375 0q0.046875 -0.015625 0.140625 -0.015625l0.140625 0.8125q-0.109375 0.0625 -0.25 0.078125q-0.140625 0.03125 -0.375 0.03125zm4.8674316 0q-0.859375 0 -1.578125 -0.40625q-0.703125 -0.40625 -1.125 -1.15625q-0.40625 -0.765625 -0.40625 -1.8125q0 -1.078125 0.421875 -1.828125q0.421875 -0.765625 1.078125 -1.171875q0.671875 -0.421875 1.40625 -0.421875q1.25 0 1.921875 0.828125q0.671875 0.828125 0.671875 2.21875q0 0.171875 -0.015625 0.34375q0 0.15625 -0.03125 0.28125l-4.375 0q0.078125 1.015625 0.65625 1.640625q0.578125 0.609375 1.515625 0.609375q0.453125 0 0.84375 -0.140625q0.40625 -0.140625 0.765625 -0.359375l0.375 0.71875q-0.40625 0.265625 -0.9375 0.46875q-0.515625 0.1875 -1.1875 0.1875zm-2.046875 -3.921875l3.46875 0q0 -0.984375 -0.421875 -1.484375q-0.40625 -0.515625 -1.171875 -0.515625q-0.6875 0 -1.234375 0.53125q-0.53125 0.515625 -0.640625 1.46875z" fill-rule="nonzero"/><path fill="#000000" fill-opacity="0.0" d="m397.62665 219.101l210.71564 0l0 80.061264l-210.71564 0z" fill-rule="evenodd"/><path stroke="#000000" stroke-width="1.0" stroke-linejoin="round" stroke-linecap="butt" d="m397.62665 219.101l210.71564 0l0 80.061264l-210.71564 0z" fill-rule="evenodd"/><path fill="#000000" d="m458.60202 256.0879q-0.84375 0 -1.6875 -0.31251526q-0.84375 -0.328125 -1.515625 -0.9375l1.125 -1.34375q0.453125 0.390625 1.03125 0.65625q0.578125 0.25 1.109375 0.25q0.609375 0 0.90625 -0.21875q0.296875 -0.234375 0.296875 -0.625q0 -0.40625 -0.34375 -0.59375q-0.328125 -0.203125 -0.90625 -0.4375l-1.125 -0.484375q-0.4375 -0.1875 -0.84375 -0.5q-0.40625 -0.3125 -0.65625 -0.78125q-0.25 -0.46875 -0.25 -1.09375q0 -0.71875 0.390625 -1.296875q0.390625 -0.59375 1.09375 -0.9375q0.703125 -0.34375 1.609375 -0.34375q0.75 0 1.484375 0.296875q0.75 0.28125 1.3125 0.84375l-1.0 1.234375q-0.421875 -0.328125 -0.859375 -0.5q-0.421875 -0.1875 -0.9375 -0.1875q-0.5 0 -0.8125 0.203125q-0.296875 0.203125 -0.296875 0.578125q0 0.40625 0.375 0.609375q0.390625 0.1875 0.953125 0.421875l1.109375 0.453125q0.796875 0.3125 1.25 0.875q0.46875 0.5625 0.46875 1.484375q0 0.71875 -0.390625 1.328125q-0.375 0.609375 -1.109375 0.984375q-0.734375 0.37501526 -1.78125 0.37501526zm5.332306 2.421875q-0.28125 0 -0.515625 -0.046875q-0.21875 -0.03125 -0.40625 -0.078125l0.34375 -1.5q0.09375 0.015625 0.203125 0.046875q0.125 0.046875 0.234375 0.046875q0.5 0 0.765625 -0.25q0.265625 -0.234375 0.390625 -0.625l0.09375 -0.34376526l-2.546875 -6.4375l1.96875 0l0.953125 2.84375q0.140625 0.453125 0.265625 0.921875q0.125 0.453125 0.25 0.953125l0.0625 0q0.109375 -0.46875 0.21875 -0.9375q0.109375 -0.484375 0.234375 -0.9375l0.796875 -2.84375l1.875 0l-2.296875 6.671875q-0.296875 0.82814026 -0.671875 1.3906403q-0.375 0.578125 -0.90625 0.84375q-0.515625 0.28125 -1.3125 0.28125zm8.022034 -2.421875q-1.015625 0 -1.421875 -0.59376526q-0.390625 -0.609375 -0.390625 -1.609375l0 -7.296875l1.96875 0l0 7.375q0 0.296875 0.109375 0.421875q0.109375 0.125 0.234375 0.125q0.0625 0 0.109375 0q0.046875 -0.015625 0.125 -0.03125l0.25 1.453125q-0.171875 0.0625 -0.421875 0.10939026q-0.234375 0.046875 -0.5625 0.046875zm3.5305786 -0.15626526l-2.234375 -6.609375l1.96875 0l0.859375 3.125q0.140625 0.484375 0.265625 1.0q0.125 0.515625 0.25 1.03125l0.0625 0q0.109375 -0.515625 0.234375 -1.03125q0.140625 -0.515625 0.265625 -1.0l0.875 -3.125l1.875 0l-2.15625 6.609375l-2.265625 0zm6.8445435 0.15626526q-0.90625 0 -1.4375 -0.57814026q-0.53125 -0.578125 -0.53125 -1.421875q0 -1.03125 0.875 -1.609375q0.875 -0.59375 2.84375 -0.796875q-0.03125 -0.4375 -0.265625 -0.703125q-0.234375 -0.265625 -0.78125 -0.265625q-0.40625 0 -0.84375 0.171875q-0.421875 0.15625 -0.890625 0.4375l-0.71875 -1.296875q0.625 -0.390625 1.34375 -0.625q0.71875 -0.234375 1.484375 -0.234375q1.265625 0 1.9375 0.734375q0.6875 0.734375 0.6875 2.25l0 3.78125l-1.59375 0l-0.140625 -0.6875l-0.046875 0q-0.421875 0.375 -0.890625 0.609375q-0.46875 0.23439026 -1.03125 0.23439026zm0.671875 -1.5156403q0.328125 0 0.578125 -0.15625q0.25 -0.15625 0.5 -0.40625l0 -1.15625q-1.046875 0.125 -1.453125 0.421875q-0.390625 0.28125 -0.390625 0.671875q0 0.3125 0.203125 0.46875q0.21875 0.15625 0.5625 0.15625zm4.6801453 1.359375l0 -6.609375l1.96875 0l0 6.609375l-1.96875 0zm0.984375 -7.578125q-0.5 0 -0.8125 -0.28125q-0.296875 -0.28125 -0.296875 -0.75q0 -0.46875 0.296875 -0.75q0.3125 -0.28125 0.8125 -0.28125q0.5 0 0.796875 0.28125q0.3125 0.28125 0.3125 0.75q0 0.46875 -0.3125 0.75q-0.296875 0.28125 -0.796875 0.28125zm2.6941833 7.578125l0 -6.609375l1.609375 0l0.125 0.84375l0.0625 0q0.421875 -0.40625 0.9375 -0.703125q0.515625 -0.296875 1.171875 -0.296875q1.078125 0 1.5625 0.71875q0.5 0.703125 0.5 1.9375l0 4.109375l-1.96875 0l0 -3.859375q0 -0.71875 -0.1875 -0.984375q-0.1875 -0.265625 -0.625 -0.265625q-0.375 0 -0.640625 0.171875q-0.265625 0.171875 -0.578125 0.46875l0 4.46875l-1.96875 0zm10.461151 0l0 -8.6875l2.140625 0l1.40625 3.859375q0.125 0.375 0.234375 0.796875q0.125 0.40625 0.265625 0.8125l0.046875 0q0.140625 -0.40625 0.25 -0.8125q0.109375 -0.421875 0.25 -0.796875l1.375 -3.859375l2.125 0l0 8.6875l-1.78125 0l0 -3.1875q0 -0.421875 0.046875 -0.953125q0.046875 -0.53125 0.109375 -1.0625q0.0625 -0.53125 0.09375 -0.9375l-0.046875 0l-0.703125 2.0625l-1.25 3.3125l-1.078125 0l-1.234375 -3.3125l-0.703125 -2.0625l-0.046875 0q0.046875 0.40625 0.09375 0.9375q0.0625 0.53125 0.109375 1.0625q0.046875 0.53125 0.046875 0.953125l0 3.1875l-1.75 0zm11.655975 0.15626526q-0.90625 0 -1.4375 -0.57814026q-0.53125 -0.578125 -0.53125 -1.421875q0 -1.03125 0.875 -1.609375q0.875 -0.59375 2.84375 -0.796875q-0.03125 -0.4375 -0.265625 -0.703125q-0.234375 -0.265625 -0.78125 -0.265625q-0.40625 0 -0.84375 0.171875q-0.421875 0.15625 -0.890625 0.4375l-0.71875 -1.296875q0.625 -0.390625 1.34375 -0.625q0.71875 -0.234375 1.484375 -0.234375q1.265625 0 1.9375 0.734375q0.6875 0.734375 0.6875 2.25l0 3.78125l-1.59375 0l-0.140625 -0.6875l-0.046875 0q-0.421875 0.375 -0.890625 0.609375q-0.46875 0.23439026 -1.03125 0.23439026zm0.671875 -1.5156403q0.328125 0 0.578125 -0.15625q0.25 -0.15625 0.5 -0.40625l0 -1.15625q-1.046875 0.125 -1.453125 0.421875q-0.390625 0.28125 -0.390625 0.671875q0 0.3125 0.203125 0.46875q0.21875 0.15625 0.5625 0.15625zm6.492676 1.5156403q-1.015625 0 -1.421875 -0.59376526q-0.390625 -0.609375 -0.390625 -1.609375l0 -7.296875l1.96875 0l0 7.375q0 0.296875 0.109375 0.421875q0.109375 0.125 0.234375 0.125q0.0625 0 0.109375 0q0.046875 -0.015625 0.125 -0.03125l0.25 1.453125q-0.171875 0.0625 -0.421875 0.10939026q-0.234375 0.046875 -0.5625 0.046875zm3.6712036 0q-0.90625 0 -1.4375 -0.57814026q-0.53125 -0.578125 -0.53125 -1.421875q0 -1.03125 0.875 -1.609375q0.875 -0.59375 2.84375 -0.796875q-0.03125 -0.4375 -0.265625 -0.703125q-0.234375 -0.265625 -0.78125 -0.265625q-0.40625 0 -0.84375 0.171875q-0.421875 0.15625 -0.890625 0.4375l-0.71875 -1.296875q0.625 -0.390625 1.34375 -0.625q0.71875 -0.234375 1.484375 -0.234375q1.265625 0 1.9375 0.734375q0.6875 0.734375 0.6875 2.25l0 3.78125l-1.59375 0l-0.140625 -0.6875l-0.046875 0q-0.421875 0.375 -0.890625 0.609375q-0.46875 0.23439026 -1.03125 0.23439026zm0.671875 -1.5156403q0.328125 0 0.578125 -0.15625q0.25 -0.15625 0.5 -0.40625l0 -1.15625q-1.046875 0.125 -1.453125 0.421875q-0.390625 0.28125 -0.390625 0.671875q0 0.3125 0.203125 0.46875q0.21875 0.15625 0.5625 0.15625zm7.5707397 1.5156403q-0.921875 0 -1.671875 -0.40626526q-0.734375 -0.40625 -1.171875 -1.1875q-0.421875 -0.78125 -0.421875 -1.875q0 -1.09375 0.46875 -1.859375q0.484375 -0.78125 1.265625 -1.1875q0.796875 -0.40625 1.703125 -0.40625q0.609375 0 1.078125 0.203125q0.484375 0.1875 0.84375 0.5l-0.90625 1.265625q-0.46875 -0.390625 -0.90625 -0.390625q-0.703125 0 -1.125 0.515625q-0.40625 0.5 -0.40625 1.359375q0 0.859375 0.40625 1.375q0.421875 0.515625 1.0625 0.515625q0.328125 0 0.625 -0.140625q0.3125 -0.140625 0.5625 -0.34375l0.78125 1.28125q-0.5 0.421875 -1.078125 0.609375q-0.5625 0.17189026 -1.109375 0.17189026zm3.3336182 -0.15626526l0 -6.609375l1.609375 0l0.125 1.15625l0.0625 0q0.359375 -0.671875 0.859375 -0.984375q0.515625 -0.328125 1.015625 -0.328125q0.28125 0 0.46875 0.03125q0.1875 0.03125 0.3125 0.09375l-0.3125 1.703125q-0.171875 -0.0625 -0.34375 -0.078125q-0.171875 -0.03125 -0.375 -0.03125q-0.375 0 -0.78125 0.28125q-0.40625 0.265625 -0.671875 0.921875l0 3.84375l-1.96875 0zm5.3045654 0l0 -6.609375l1.96875 0l0 6.609375l-1.96875 0zm0.984375 -7.578125q-0.5 0 -0.8125 -0.28125q-0.296875 -0.28125 -0.296875 -0.75q0 -0.46875 0.296875 -0.75q0.3125 -0.28125 0.8125 -0.28125q0.5 0 0.796875 0.28125q0.3125 0.28125 0.3125 0.75q0 0.46875 -0.3125 0.75q-0.296875 0.28125 -0.796875 0.28125zm4.366028 7.7343903q-0.90625 0 -1.4375 -0.57814026q-0.53125 -0.578125 -0.53125 -1.421875q0 -1.03125 0.875 -1.609375q0.875 -0.59375 2.84375 -0.796875q-0.03125 -0.4375 -0.265625 -0.703125q-0.234375 -0.265625 -0.78125 -0.265625q-0.40625 0 -0.84375 0.171875q-0.421875 0.15625 -0.890625 0.4375l-0.71875 -1.296875q0.625 -0.390625 1.34375 -0.625q0.71875 -0.234375 1.484375 -0.234375q1.265625 0 1.9375 0.734375q0.6875 0.734375 0.6875 2.25l0 3.78125l-1.59375 0l-0.140625 -0.6875l-0.046875 0q-0.421875 0.375 -0.890625 0.609375q-0.46875 0.23439026 -1.03125 0.23439026zm0.671875 -1.5156403q0.328125 0 0.578125 -0.15625q0.25 -0.15625 0.5 -0.40625l0 -1.15625q-1.046875 0.125 -1.453125 0.421875q-0.390625 0.28125 -0.390625 0.671875q0 0.3125 0.203125 0.46875q0.21875 0.15625 0.5625 0.15625z" fill-rule="nonzero"/><path fill="#000000" d="m450.39633 272.0879q-0.859375 0 -1.5625 -0.390625q-0.6875 -0.40625 -1.09375 -1.15625q-0.390625 -0.765625 -0.390625 -1.828125q0 -1.09375 0.4375 -1.859375q0.4375 -0.765625 1.140625 -1.15625q0.71875 -0.40625 1.546875 -0.40625q0.640625 0 1.09375 0.234375q0.46875 0.21875 0.796875 0.53125l-0.5625 0.71875q-0.28125 -0.25 -0.59375 -0.40625q-0.3125 -0.171875 -0.703125 -0.171875q-0.578125 0 -1.046875 0.3125q-0.453125 0.3125 -0.71875 0.890625q-0.25 0.5625 -0.25 1.3125q0 1.09375 0.546875 1.78125q0.5625 0.6875 1.453125 0.6875q0.453125 0 0.828125 -0.1875q0.390625 -0.203125 0.6875 -0.46875l0.484375 0.734375q-0.453125 0.390625 -0.984375 0.609375q-0.53125 0.21875 -1.109375 0.21875zm3.5151062 -0.15625l0 -9.484375l1.09375 0l0 2.578125l-0.046875 1.328125q0.46875 -0.4375 0.984375 -0.75q0.515625 -0.3125 1.1875 -0.3125q1.015625 0 1.484375 0.65625q0.484375 0.640625 0.484375 1.875l0 4.109375l-1.09375 0l0 -3.953125q0 -0.90625 -0.296875 -1.3125q-0.296875 -0.421875 -0.9375 -0.421875q-0.484375 0 -0.890625 0.25q-0.390625 0.25 -0.875 0.75l0 4.6875l-1.09375 0zm8.734833 0.15625q-0.8125 0 -1.359375 -0.484375q-0.53125 -0.484375 -0.53125 -1.34375q0 -1.078125 0.953125 -1.640625q0.953125 -0.5625 3.03125 -0.796875q0 -0.40625 -0.125 -0.78125q-0.109375 -0.375 -0.40625 -0.609375q-0.28125 -0.234375 -0.8125 -0.234375q-0.5625 0 -1.0625 0.21875q-0.484375 0.21875 -0.859375 0.484375l-0.4375 -0.765625q0.453125 -0.296875 1.109375 -0.5625q0.671875 -0.28125 1.4375 -0.28125q1.1875 0 1.71875 0.734375q0.53125 0.71875 0.53125 1.9375l0 3.96875l-0.90625 0l-0.09375 -0.765625l-0.03125 0q-0.453125 0.359375 -1.0 0.640625q-0.53125 0.28125 -1.15625 0.28125zm0.328125 -0.875q0.46875 0 0.875 -0.21875q0.421875 -0.234375 0.890625 -0.65625l0 -1.796875q-1.625 0.203125 -2.265625 0.609375q-0.640625 0.390625 -0.640625 1.015625q0 0.546875 0.328125 0.796875q0.328125 0.25 0.8125 0.25zm4.904846 0.71875l0 -6.484375l0.90625 0l0.09375 1.1875l0.03125 0q0.34375 -0.625 0.8125 -0.984375q0.484375 -0.359375 1.03125 -0.359375q0.390625 0 0.703125 0.140625l-0.21875 0.953125q-0.15625 -0.046875 -0.296875 -0.078125q-0.125 -0.03125 -0.328125 -0.03125q-0.421875 0 -0.875 0.34375q-0.4375 0.328125 -0.765625 1.15625l0 4.15625l-1.09375 0zm6.679016 2.984375q-1.1875 0 -1.9375 -0.453125q-0.75 -0.453125 -0.75 -1.296875q0 -0.40625 0.25 -0.796875q0.265625 -0.375 0.703125 -0.671875l0 -0.046875q-0.234375 -0.140625 -0.40625 -0.40625q-0.171875 -0.265625 -0.171875 -0.640625q0 -0.421875 0.21875 -0.71875q0.234375 -0.3125 0.484375 -0.484375l0 -0.046875q-0.3125 -0.28125 -0.578125 -0.734375q-0.25 -0.453125 -0.25 -1.015625q0 -0.703125 0.328125 -1.21875q0.328125 -0.53125 0.890625 -0.8125q0.5625 -0.28125 1.21875 -0.28125q0.265625 0 0.5 0.046875q0.25 0.046875 0.421875 0.109375l2.25 0l0 0.84375l-1.328125 0q0.21875 0.21875 0.375 0.578125q0.15625 0.34375 0.15625 0.75q0 0.703125 -0.328125 1.21875q-0.3125 0.5 -0.859375 0.78125q-0.53125 0.265625 -1.1875 0.265625q-0.515625 0 -0.96875 -0.234375q-0.1875 0.15625 -0.3125 0.34375q-0.109375 0.171875 -0.109375 0.4375q0 0.296875 0.25 0.5q0.25 0.203125 0.890625 0.203125l1.265625 0q1.125 0 1.6875 0.375q0.578125 0.359375 0.578125 1.171875q0 0.59375 -0.40625 1.09375q-0.40625 0.515625 -1.140625 0.828125q-0.71875 0.3125 -1.734375 0.3125zm0 -5.765625q0.5625 0 0.96875 -0.421875q0.40625 -0.421875 0.40625 -1.125q0 -0.703125 -0.40625 -1.109375q-0.390625 -0.40625 -0.96875 -0.40625q-0.578125 0 -0.984375 0.40625q-0.390625 0.40625 -0.390625 1.109375q0 0.703125 0.40625 1.125q0.40625 0.421875 0.96875 0.421875zm0.15625 5.0q0.9375 0 1.484375 -0.40625q0.5625 -0.40625 0.5625 -0.90625q0 -0.453125 -0.34375 -0.625q-0.328125 -0.171875 -0.953125 -0.171875l-1.125 0q-0.1875 0 -0.40625 -0.03125q-0.21875 -0.03125 -0.4375 -0.078125q-0.34375 0.25 -0.5 0.53125q-0.15625 0.28125 -0.15625 0.5625q0 0.515625 0.5 0.8125q0.5 0.3125 1.375 0.3125zm6.8119507 -2.0625q-0.859375 0 -1.578125 -0.40625q-0.703125 -0.40625 -1.125 -1.15625q-0.40625 -0.765625 -0.40625 -1.8125q0 -1.078125 0.421875 -1.828125q0.421875 -0.765625 1.078125 -1.171875q0.671875 -0.421875 1.40625 -0.421875q1.25 0 1.921875 0.828125q0.671875 0.828125 0.671875 2.21875q0 0.171875 -0.015625 0.34375q0 0.15625 -0.03125 0.28125l-4.375 0q0.078125 1.015625 0.65625 1.640625q0.578125 0.609375 1.515625 0.609375q0.453125 0 0.84375 -0.140625q0.40625 -0.140625 0.765625 -0.359375l0.375 0.71875q-0.40625 0.265625 -0.9375 0.46875q-0.515625 0.1875 -1.1875 0.1875zm-2.046875 -3.921875l3.46875 0q0 -0.984375 -0.421875 -1.484375q-0.40625 -0.515625 -1.171875 -0.515625q-0.6875 0 -1.234375 0.53125q-0.53125 0.515625 -0.640625 1.46875zm1.65625 -3.875l-0.5625 -0.546875l1.890625 -2.21875l0.765625 0.734375l-2.09375 2.03125zm9.260712 7.796875q-1.21875 0 -1.953125 -0.875q-0.734375 -0.890625 -0.734375 -2.5q0 -1.0625 0.390625 -1.828125q0.390625 -0.765625 1.03125 -1.171875q0.65625 -0.421875 1.390625 -0.421875q0.5625 0 0.96875 0.203125q0.421875 0.203125 0.84375 0.546875l-0.046875 -1.109375l0 -2.484375l1.09375 0l0 9.484375l-0.90625 0l-0.09375 -0.765625l-0.03125 0q-0.375 0.375 -0.890625 0.65625q-0.5 0.265625 -1.0625 0.265625zm0.234375 -0.921875q0.84375 0 1.65625 -0.890625l0 -3.375q-0.421875 -0.375 -0.796875 -0.53125q-0.375 -0.15625 -0.78125 -0.15625q-0.515625 0 -0.9375 0.3125q-0.421875 0.3125 -0.671875 0.875q-0.25 0.546875 -0.25 1.296875q0 1.15625 0.453125 1.8125q0.46875 0.65625 1.328125 0.65625zm7.5689697 0.921875q-0.859375 0 -1.578125 -0.40625q-0.703125 -0.40625 -1.125 -1.15625q-0.40625 -0.765625 -0.40625 -1.8125q0 -1.078125 0.421875 -1.828125q0.421875 -0.765625 1.078125 -1.171875q0.671875 -0.421875 1.40625 -0.421875q1.25 0 1.921875 0.828125q0.671875 0.828125 0.671875 2.21875q0 0.171875 -0.015625 0.34375q0 0.15625 -0.03125 0.28125l-4.375 0q0.078125 1.015625 0.65625 1.640625q0.578125 0.609375 1.515625 0.609375q0.453125 0 0.84375 -0.140625q0.40625 -0.140625 0.765625 -0.359375l0.375 0.71875q-0.40625 0.265625 -0.9375 0.46875q-0.515625 0.1875 -1.1875 0.1875zm-2.046875 -3.921875l3.46875 0q0 -0.984375 -0.421875 -1.484375q-0.40625 -0.515625 -1.171875 -0.515625q-0.6875 0 -1.234375 0.53125q-0.53125 0.515625 -0.640625 1.46875zm8.698212 3.765625l0 -6.484375l0.90625 0l0.09375 1.1875l0.03125 0q0.34375 -0.625 0.8125 -0.984375q0.484375 -0.359375 1.03125 -0.359375q0.390625 0 0.703125 0.140625l-0.21875 0.953125q-0.15625 -0.046875 -0.296875 -0.078125q-0.125 -0.03125 -0.328125 -0.03125q-0.421875 0 -0.875 0.34375q-0.4375 0.328125 -0.765625 1.15625l0 4.15625l-1.09375 0zm7.116516 0.15625q-0.859375 0 -1.578125 -0.40625q-0.703125 -0.40625 -1.125 -1.15625q-0.40625 -0.765625 -0.40625 -1.8125q0 -1.078125 0.421875 -1.828125q0.421875 -0.765625 1.078125 -1.171875q0.671875 -0.421875 1.40625 -0.421875q1.2500305 0 1.9219055 0.828125q0.671875 0.828125 0.671875 2.21875q0 0.171875 -0.015625 0.34375q0 0.15625 -0.03125 0.28125l-4.3750305 0q0.078125 1.015625 0.65625 1.640625q0.578125 0.609375 1.5156555 0.609375q0.453125 0 0.84375 -0.140625q0.40625 -0.140625 0.765625 -0.359375l0.375 0.71875q-0.40625 0.265625 -0.9375 0.46875q-0.515625 0.1875 -1.1875305 0.1875zm-2.046875 -3.921875l3.4687805 0q0 -0.984375 -0.421875 -1.484375q-0.40625 -0.515625 -1.1719055 -0.515625q-0.6875 0 -1.234375 0.53125q-0.53125 0.515625 -0.640625 1.46875zm8.595123 3.921875q-0.859375 0 -1.5625 -0.390625q-0.6875 -0.40625 -1.09375 -1.15625q-0.390625 -0.765625 -0.390625 -1.828125q0 -1.09375 0.4375 -1.859375q0.4375 -0.765625 1.140625 -1.15625q0.71875 -0.40625 1.546875 -0.40625q0.640625 0 1.09375 0.234375q0.46875 0.21875 0.796875 0.53125l-0.5625 0.71875q-0.28125 -0.25 -0.59375 -0.40625q-0.3125 -0.171875 -0.703125 -0.171875q-0.578125 0 -1.046875 0.3125q-0.453125 0.3125 -0.71875 0.890625q-0.25 0.5625 -0.25 1.3125q0 1.09375 0.546875 1.78125q0.5625 0.6875 1.453125 0.6875q0.453125 0 0.828125 -0.1875q0.390625 -0.203125 0.6875 -0.46875l0.484375 0.734375q-0.453125 0.390625 -0.984375 0.609375q-0.53125 0.21875 -1.109375 0.21875zm3.5150757 -0.15625l0 -9.484375l1.09375 0l0 2.578125l-0.046875 1.328125q0.46875 -0.4375 0.984375 -0.75q0.515625 -0.3125 1.1875 -0.3125q1.015625 0 1.484375 0.65625q0.484375 0.640625 0.484375 1.875l0 4.109375l-1.09375 0l0 -3.953125q0 -0.90625 -0.296875 -1.3125q-0.296875 -0.421875 -0.9375 -0.421875q-0.484375 0 -0.890625 0.25q-0.390625 0.25 -0.875 0.75l0 4.6875l-1.09375 0zm9.875488 0.15625q-0.859375 0 -1.578125 -0.40625q-0.703125 -0.40625 -1.125 -1.15625q-0.40625 -0.765625 -0.40625 -1.8125q0 -1.078125 0.421875 -1.828125q0.421875 -0.765625 1.078125 -1.171875q0.671875 -0.421875 1.40625 -0.421875q1.25 0 1.921875 0.828125q0.671875 0.828125 0.671875 2.21875q0 0.171875 -0.015625 0.34375q0 0.15625 -0.03125 0.28125l-4.375 0q0.078125 1.015625 0.65625 1.640625q0.578125 0.609375 1.515625 0.609375q0.453125 0 0.84375 -0.140625q0.40625 -0.140625 0.765625 -0.359375l0.375 0.71875q-0.40625 0.265625 -0.9375 0.46875q-0.515625 0.1875 -1.1875 0.1875zm-2.046875 -3.921875l3.46875 0q0 -0.984375 -0.421875 -1.484375q-0.40625 -0.515625 -1.171875 -0.515625q-0.6875 0 -1.234375 0.53125q-0.53125 0.515625 -0.640625 1.46875zm6.032593 3.765625l0 -6.484375l0.90625 0l0.09375 1.1875l0.03125 0q0.34375 -0.625 0.8125 -0.984375q0.484375 -0.359375 1.03125 -0.359375q0.390625 0 0.703125 0.140625l-0.21875 0.953125q-0.15625 -0.046875 -0.296875 -0.078125q-0.125 -0.03125 -0.328125 -0.03125q-0.421875 0 -0.875 0.34375q-0.4375 0.328125 -0.765625 1.15625l0 4.15625l-1.09375 0zm7.054016 0.15625q-0.859375 0 -1.5625 -0.390625q-0.6875 -0.40625 -1.09375 -1.15625q-0.390625 -0.765625 -0.390625 -1.828125q0 -1.09375 0.4375 -1.859375q0.4375 -0.765625 1.140625 -1.15625q0.71875 -0.40625 1.546875 -0.40625q0.640625 0 1.09375 0.234375q0.46875 0.21875 0.796875 0.53125l-0.5625 0.71875q-0.28125 -0.25 -0.59375 -0.40625q-0.3125 -0.171875 -0.703125 -0.171875q-0.578125 0 -1.046875 0.3125q-0.453125 0.3125 -0.71875 0.890625q-0.25 0.5625 -0.25 1.3125q0 1.09375 0.546875 1.78125q0.5625 0.6875 1.453125 0.6875q0.453125 0 0.828125 -0.1875q0.390625 -0.203125 0.6875 -0.46875l0.484375 0.734375q-0.453125 0.390625 -0.984375 0.609375q-0.53125 0.21875 -1.109375 0.21875zm3.5151367 -0.15625l0 -9.484375l1.09375 0l0 2.578125l-0.046875 1.328125q0.46875 -0.4375 0.984375 -0.75q0.515625 -0.3125 1.1875 -0.3125q1.015625 0 1.484375 0.65625q0.484375 0.640625 0.484375 1.875l0 4.109375l-1.09375 0l0 -3.953125q0 -0.90625 -0.296875 -1.3125q-0.296875 -0.421875 -0.9375 -0.421875q-0.484375 0 -0.890625 0.25q-0.390625 0.25 -0.875 0.75l0 4.6875l-1.09375 0zm9.875488 0.15625q-0.859375 0 -1.578125 -0.40625q-0.703125 -0.40625 -1.125 -1.15625q-0.40625 -0.765625 -0.40625 -1.8125q0 -1.078125 0.421875 -1.828125q0.421875 -0.765625 1.078125 -1.171875q0.671875 -0.421875 1.40625 -0.421875q1.25 0 1.921875 0.828125q0.671875 0.828125 0.671875 2.21875q0 0.171875 -0.015625 0.34375q0 0.15625 -0.03125 0.28125l-4.375 0q0.078125 1.015625 0.65625 1.640625q0.578125 0.609375 1.515625 0.609375q0.453125 0 0.84375 -0.140625q0.40625 -0.140625 0.765625 -0.359375l0.375 0.71875q-0.40625 0.265625 -0.9375 0.46875q-0.515625 0.1875 -1.1875 0.1875zm-2.046875 -3.921875l3.46875 0q0 -0.984375 -0.421875 -1.484375q-0.40625 -0.515625 -1.171875 -0.515625q-0.6875 0 -1.234375 0.53125q-0.53125 0.515625 -0.640625 1.46875z" fill-rule="nonzero"/><path fill="#000000" fill-opacity="0.0" d="m513.42365 396.56738l210.7157 0l0 80.06128l-210.7157 0z" fill-rule="evenodd"/><path stroke="#000000" stroke-width="1.0" stroke-linejoin="round" stroke-linecap="butt" d="m513.42365 396.56738l210.7157 0l0 80.06128l-210.7157 0z" fill-rule="evenodd"/><path fill="#000000" d="m564.4148 433.39804l0 -8.6875l1.953125 0l0 7.03125l3.4375 0l0 1.65625l-5.390625 0zm8.598755 0.15625q-1.09375 0 -1.578125 -0.703125q-0.484375 -0.71875 -0.484375 -1.953125l0 -4.109375l1.96875 0l0 3.84375q0 0.71875 0.1875 1.0q0.203125 0.265625 0.625 0.265625q0.375 0 0.625 -0.171875q0.265625 -0.1875 0.5625 -0.5625l0 -4.375l1.953125 0l0 6.609375l-1.59375 0l-0.15625 -0.921875l-0.03125 0q-0.421875 0.5 -0.921875 0.796875q-0.484375 0.28125 -1.15625 0.28125zm7.9296875 0q-1.21875 0 -1.96875 -0.921875q-0.734375 -0.921875 -0.734375 -2.546875q0 -1.078125 0.390625 -1.84375q0.40625 -0.78125 1.03125 -1.1875q0.640625 -0.421875 1.328125 -0.421875q0.546875 0 0.921875 0.1875q0.375 0.1875 0.703125 0.5l-0.078125 -1.015625l0 -2.25l1.953125 0l0 9.34375l-1.59375 0l-0.140625 -0.65625l-0.046875 0q-0.34375 0.34375 -0.8125 0.578125q-0.46875 0.234375 -0.953125 0.234375zm0.515625 -1.59375q0.3125 0 0.578125 -0.125q0.265625 -0.140625 0.5 -0.484375l0 -2.703125q-0.25 -0.234375 -0.546875 -0.328125q-0.28125 -0.09375 -0.546875 -0.09375q-0.46875 0 -0.828125 0.453125q-0.359375 0.4375 -0.359375 1.390625q0 0.96875 0.3125 1.4375q0.3125 0.453125 0.890625 0.453125zm7.605774 1.59375q-0.84375 0 -1.578125 -0.40625q-0.734375 -0.40625 -1.1875 -1.1875q-0.453125 -0.78125 -0.453125 -1.875q0 -1.09375 0.453125 -1.859375q0.453125 -0.78125 1.1875 -1.1875q0.734375 -0.40625 1.578125 -0.40625q0.84375 0 1.578125 0.40625q0.734375 0.40625 1.1875 1.1875q0.453125 0.765625 0.453125 1.859375q0 1.09375 -0.453125 1.875q-0.453125 0.78125 -1.1875 1.1875q-0.734375 0.40625 -1.578125 0.40625zm0 -1.578125q0.609375 0 0.90625 -0.515625q0.3125 -0.515625 0.3125 -1.375q0 -0.859375 -0.3125 -1.359375q-0.296875 -0.515625 -0.90625 -0.515625q-0.609375 0 -0.90625 0.515625q-0.296875 0.5 -0.296875 1.359375q0 0.859375 0.296875 1.375q0.296875 0.515625 0.90625 0.515625zm5.9779053 1.421875l-2.234375 -6.609375l1.96875 0l0.859375 3.125q0.140625 0.484375 0.265625 1.0q0.125 0.515625 0.25 1.03125l0.0625 0q0.109375 -0.515625 0.234375 -1.03125q0.140625 -0.515625 0.265625 -1.0l0.875 -3.125l1.875 0l-2.15625 6.609375l-2.265625 0zm5.439331 0l0 -6.609375l1.96875 0l0 6.609375l-1.96875 0zm0.984375 -7.578125q-0.5 0 -0.8125 -0.28125q-0.296875 -0.28125 -0.296875 -0.75q0 -0.46875 0.296875 -0.75q0.3125 -0.28125 0.8125 -0.28125q0.5 0 0.796875 0.28125q0.3125 0.28125 0.3125 0.75q0 0.46875 -0.3125 0.75q-0.296875 0.28125 -0.796875 0.28125zm5.584778 7.734375q-0.921875 0 -1.671875 -0.40625q-0.734375 -0.40625 -1.171875 -1.1875q-0.421875 -0.78125 -0.421875 -1.875q0 -1.09375 0.46875 -1.859375q0.484375 -0.78125 1.265625 -1.1875q0.796875 -0.40625 1.703125 -0.40625q0.609375 0 1.078125 0.203125q0.484375 0.1875 0.84375 0.5l-0.90625 1.265625q-0.46875 -0.390625 -0.90625 -0.390625q-0.703125 0 -1.125 0.515625q-0.40625 0.5 -0.40625 1.359375q0 0.859375 0.40625 1.375q0.421875 0.515625 1.0625 0.515625q0.328125 0 0.625 -0.140625q0.3125 -0.140625 0.5625 -0.34375l0.78125 1.28125q-0.5 0.421875 -1.078125 0.609375q-0.5625 0.171875 -1.109375 0.171875zm6.1710815 -0.15625l0 -8.6875l2.140625 0l1.40625 3.859375q0.125 0.375 0.234375 0.796875q0.125 0.40625 0.265625 0.8125l0.046875 0q0.140625 -0.40625 0.25 -0.8125q0.109375 -0.421875 0.25 -0.796875l1.375 -3.859375l2.125 0l0 8.6875l-1.78125 0l0 -3.1875q0 -0.421875 0.046875 -0.953125q0.046875 -0.53125 0.109375 -1.0625q0.0625 -0.53125 0.09375 -0.9375l-0.046875 0l-0.703125 2.0625l-1.25 3.3125l-1.078125 0l-1.234375 -3.3125l-0.703125 -2.0625l-0.046875 0q0.046875 0.40625 0.09375 0.9375q0.0625 0.53125 0.109375 1.0625q0.046875 0.53125 0.046875 0.953125l0 3.1875l-1.75 0zm11.656006 0.15625q-0.90625 0 -1.4375 -0.578125q-0.53125 -0.578125 -0.53125 -1.421875q0 -1.03125 0.875 -1.609375q0.875 -0.59375 2.84375 -0.796875q-0.03125 -0.4375 -0.265625 -0.703125q-0.234375 -0.265625 -0.78125 -0.265625q-0.40625 0 -0.84375 0.171875q-0.421875 0.15625 -0.890625 0.4375l-0.71875 -1.296875q0.625 -0.390625 1.34375 -0.625q0.71875 -0.234375 1.484375 -0.234375q1.265625 0 1.9375 0.734375q0.6875 0.734375 0.6875 2.25l0 3.78125l-1.59375 0l-0.140625 -0.6875l-0.046875 0q-0.421875 0.375 -0.890625 0.609375q-0.46875 0.234375 -1.03125 0.234375zm0.671875 -1.515625q0.328125 0 0.578125 -0.15625q0.25 -0.15625 0.5 -0.40625l0 -1.15625q-1.046875 0.125 -1.453125 0.421875q-0.390625 0.28125 -0.390625 0.671875q0 0.3125 0.203125 0.46875q0.21875 0.15625 0.5625 0.15625zm4.6801147 1.359375l0 -6.609375l1.609375 0l0.125 0.84375l0.0625 0q0.421875 -0.40625 0.9375 -0.703125q0.515625 -0.296875 1.171875 -0.296875q1.078125 0 1.5625 0.71875q0.5 0.703125 0.5 1.9375l0 4.109375l-1.96875 0l0 -3.859375q0 -0.71875 -0.1875 -0.984375q-0.1875 -0.265625 -0.625 -0.265625q-0.375 0 -0.640625 0.171875q-0.265625 0.171875 -0.578125 0.46875l0 4.46875l-1.96875 0zm10.170532 0.15625q-1.21875 0 -1.75 -0.703125q-0.515625 -0.703125 -0.515625 -1.859375l0 -2.671875l-0.90625 0l0 -1.453125l1.0 -0.078125l0.234375 -1.765625l1.625 0l0 1.765625l1.578125 0l0 1.53125l-1.578125 0l0 2.65625q0 0.5625 0.234375 0.8125q0.234375 0.234375 0.609375 0.234375q0.171875 0 0.328125 -0.03125q0.171875 -0.046875 0.3125 -0.09375l0.296875 1.421875q-0.25 0.078125 -0.625 0.15625q-0.359375 0.078125 -0.84375 0.078125zm5.16156 0q-0.84375 0 -1.578125 -0.40625q-0.734375 -0.40625 -1.1875 -1.1875q-0.453125 -0.78125 -0.453125 -1.875q0 -1.09375 0.453125 -1.859375q0.453125 -0.78125 1.1875 -1.1875q0.734375 -0.40625 1.578125 -0.40625q0.84375 0 1.578125 0.40625q0.734375 0.40625 1.1875 1.1875q0.453125 0.765625 0.453125 1.859375q0 1.09375 -0.453125 1.875q-0.453125 0.78125 -1.1875 1.1875q-0.734375 0.40625 -1.578125 0.40625zm0 -1.578125q0.609375 0 0.90625 -0.515625q0.3125 -0.515625 0.3125 -1.375q0 -0.859375 -0.3125 -1.359375q-0.296875 -0.515625 -0.90625 -0.515625q-0.609375 0 -0.90625 0.515625q-0.296875 0.5 -0.296875 1.359375q0 0.859375 0.296875 1.375q0.296875 0.515625 0.90625 0.515625zm5.9779053 1.421875l-2.234375 -6.609375l1.96875 0l0.859375 3.125q0.140625 0.484375 0.265625 1.0q0.125 0.515625 0.25 1.03125l0.0625 0q0.109375 -0.515625 0.234375 -1.03125q0.140625 -0.515625 0.265625 -1.0l0.875 -3.125l1.875 0l-2.15625 6.609375l-2.265625 0zm6.8445435 0.15625q-0.90625 0 -1.4375 -0.578125q-0.53125 -0.578125 -0.53125 -1.421875q0 -1.03125 0.875 -1.609375q0.875 -0.59375 2.84375 -0.796875q-0.03125 -0.4375 -0.265625 -0.703125q-0.234375 -0.265625 -0.78125 -0.265625q-0.40625 0 -0.84375 0.171875q-0.421875 0.15625 -0.890625 0.4375l-0.71875 -1.296875q0.625 -0.390625 1.34375 -0.625q0.71875 -0.234375 1.484375 -0.234375q1.265625 0 1.9375 0.734375q0.6875 0.734375 0.6875 2.25l0 3.78125l-1.59375 0l-0.140625 -0.6875l-0.046875 0q-0.421875 0.375 -0.890625 0.609375q-0.46875 0.234375 -1.03125 0.234375zm0.671875 -1.515625q0.328125 0 0.578125 -0.15625q0.25 -0.15625 0.5 -0.40625l0 -1.15625q-1.046875 0.125 -1.453125 0.421875q-0.390625 0.28125 -0.390625 0.671875q0 0.3125 0.203125 0.46875q0.21875 0.15625 0.5625 0.15625zm4.6801147 1.359375l0 -6.609375l1.609375 0l0.125 0.84375l0.0625 0q0.421875 -0.40625 0.9375 -0.703125q0.515625 -0.296875 1.171875 -0.296875q1.078125 0 1.5625 0.71875q0.5 0.703125 0.5 1.9375l0 4.109375l-1.96875 0l0 -3.859375q0 -0.71875 -0.1875 -0.984375q-0.1875 -0.265625 -0.625 -0.265625q-0.375 0 -0.640625 0.171875q-0.265625 0.171875 -0.578125 0.46875l0 4.46875l-1.96875 0zm7.623657 0l0 -6.609375l1.96875 0l0 6.609375l-1.96875 0zm0.984375 -7.578125q-0.5 0 -0.8125 -0.28125q-0.296875 -0.28125 -0.296875 -0.75q0 -0.46875 0.296875 -0.75q0.3125 -0.28125 0.8125 -0.28125q0.5 0 0.796875 0.28125q0.3125 0.28125 0.3125 0.75q0 0.46875 -0.3125 0.75q-0.296875 0.28125 -0.796875 0.28125z" fill-rule="nonzero"/><path fill="#000000" d="m597.9896 449.5543q-0.921875 0 -1.703125 -0.34375q-0.78125 -0.359375 -1.359375 -0.953125l0.65625 -0.765625q0.46875 0.5 1.09375 0.796875q0.640625 0.296875 1.328125 0.296875q0.859375 0 1.34375 -0.390625q0.484375 -0.390625 0.484375 -1.03125q0 -0.453125 -0.203125 -0.71875q-0.1875 -0.265625 -0.515625 -0.453125q-0.328125 -0.1875 -0.734375 -0.375l-1.25 -0.546875q-0.421875 -0.171875 -0.828125 -0.453125q-0.40625 -0.28125 -0.6875 -0.71875q-0.265625 -0.4375 -0.265625 -1.078125q0 -0.671875 0.34375 -1.1875q0.359375 -0.53125 0.984375 -0.828125q0.640625 -0.3125 1.421875 -0.3125q0.78125 0 1.4375 0.3125q0.671875 0.296875 1.140625 0.765625l-0.59375 0.71875q-0.40625 -0.375 -0.890625 -0.59375q-0.484375 -0.234375 -1.09375 -0.234375q-0.734375 0 -1.1875 0.359375q-0.4375 0.34375 -0.4375 0.921875q0 0.421875 0.21875 0.703125q0.21875 0.265625 0.546875 0.4375q0.34375 0.171875 0.6875 0.3125l1.234375 0.53125q0.5 0.21875 0.90625 0.515625q0.421875 0.296875 0.65625 0.734375q0.234375 0.4375 0.234375 1.09375q0 0.6875 -0.359375 1.265625q-0.359375 0.5625 -1.03125 0.890625q-0.65625 0.328125 -1.578125 0.328125zm6.29718 0q-1.03125 0 -1.4375 -0.59375q-0.40625 -0.609375 -0.40625 -1.5625l0 -3.578125l-0.96875 0l0 -0.828125l1.015625 -0.078125l0.140625 -1.8125l0.921875 0l0 1.8125l1.734375 0l0 0.90625l-1.734375 0l0 3.59375q0 0.59375 0.21875 0.921875q0.21875 0.328125 0.78125 0.328125q0.171875 0 0.359375 -0.0625q0.203125 -0.0625 0.375 -0.109375l0.203125 0.828125q-0.265625 0.09375 -0.578125 0.15625q-0.3125 0.078125 -0.625 0.078125zm3.6780396 0q-0.8125 0 -1.359375 -0.484375q-0.53125 -0.484375 -0.53125 -1.34375q0 -1.078125 0.953125 -1.640625q0.953125 -0.5625 3.03125 -0.796875q0 -0.40625 -0.125 -0.78125q-0.109375 -0.375 -0.40625 -0.609375q-0.28125 -0.234375 -0.8125 -0.234375q-0.5625 0 -1.0625 0.21875q-0.484375 0.21875 -0.859375 0.484375l-0.4375 -0.765625q0.453125 -0.296875 1.109375 -0.5625q0.671875 -0.28125 1.4375 -0.28125q1.1875 0 1.71875 0.734375q0.53125 0.71875 0.53125 1.9375l0 3.96875l-0.90625 0l-0.09375 -0.765625l-0.03125 0q-0.453125 0.359375 -1.0 0.640625q-0.53125 0.28125 -1.15625 0.28125zm0.328125 -0.875q0.46875 0 0.875 -0.21875q0.421875 -0.234375 0.890625 -0.65625l0 -1.796875q-1.625 0.203125 -2.265625 0.609375q-0.640625 0.390625 -0.640625 1.015625q0 0.546875 0.328125 0.796875q0.328125 0.25 0.8125 0.25zm7.092346 3.703125q-1.1875 0 -1.9375 -0.453125q-0.75 -0.453125 -0.75 -1.296875q0 -0.40625 0.25 -0.796875q0.265625 -0.375 0.703125 -0.671875l0 -0.046875q-0.234375 -0.140625 -0.40625 -0.40625q-0.171875 -0.265625 -0.171875 -0.640625q0 -0.421875 0.21875 -0.71875q0.234375 -0.3125 0.484375 -0.484375l0 -0.046875q-0.3125 -0.28125 -0.578125 -0.734375q-0.25 -0.453125 -0.25 -1.015625q0 -0.703125 0.328125 -1.21875q0.328125 -0.53125 0.890625 -0.8125q0.5625 -0.28125 1.21875 -0.28125q0.265625 0 0.5 0.046875q0.25 0.046875 0.421875 0.109375l2.25 0l0 0.84375l-1.328125 0q0.21875 0.21875 0.375 0.578125q0.15625 0.34375 0.15625 0.75q0 0.703125 -0.328125 1.21875q-0.3125 0.5 -0.859375 0.78125q-0.53125 0.265625 -1.1875 0.265625q-0.515625 0 -0.96875 -0.234375q-0.1875 0.15625 -0.3125 0.34375q-0.109375 0.171875 -0.109375 0.4375q0 0.296875 0.25 0.5q0.25 0.203125 0.890625 0.203125l1.265625 0q1.125 0 1.6875 0.375q0.578125 0.359375 0.578125 1.171875q0 0.59375 -0.40625 1.09375q-0.40625 0.515625 -1.140625 0.828125q-0.71875 0.3125 -1.734375 0.3125zm0 -5.765625q0.5625 0 0.96875 -0.421875q0.40625 -0.421875 0.40625 -1.125q0 -0.703125 -0.40625 -1.109375q-0.390625 -0.40625 -0.96875 -0.40625q-0.578125 0 -0.984375 0.40625q-0.390625 0.40625 -0.390625 1.109375q0 0.703125 0.40625 1.125q0.40625 0.421875 0.96875 0.421875zm0.15625 5.0q0.9375 0 1.484375 -0.40625q0.5625 -0.40625 0.5625 -0.90625q0 -0.453125 -0.34375 -0.625q-0.328125 -0.171875 -0.953125 -0.171875l-1.125 0q-0.1875 0 -0.40625 -0.03125q-0.21875 -0.03125 -0.4375 -0.078125q-0.34375 0.25 -0.5 0.53125q-0.15625 0.28125 -0.15625 0.5625q0 0.515625 0.5 0.8125q0.5 0.3125 1.375 0.3125zm4.373596 -2.21875l0 -6.484375l1.09375 0l0 6.484375l-1.09375 0zm0.5625 -7.8125q-0.3125 0 -0.53125 -0.1875q-0.203125 -0.203125 -0.203125 -0.53125q0 -0.3125 0.203125 -0.515625q0.21875 -0.203125 0.53125 -0.203125q0.3125 0 0.515625 0.203125q0.21875 0.203125 0.21875 0.515625q0 0.328125 -0.21875 0.53125q-0.203125 0.1875 -0.515625 0.1875zm4.2005615 7.96875q-0.8125 0 -1.359375 -0.484375q-0.53125 -0.484375 -0.53125 -1.34375q0 -1.078125 0.953125 -1.640625q0.953125 -0.5625 3.03125 -0.796875q0 -0.40625 -0.125 -0.78125q-0.109375 -0.375 -0.40625 -0.609375q-0.28125 -0.234375 -0.8125 -0.234375q-0.5625 0 -1.0625 0.21875q-0.484375 0.21875 -0.859375 0.484375l-0.4375 -0.765625q0.453125 -0.296875 1.109375 -0.5625q0.671875 -0.28125 1.4375 -0.28125q1.1875 0 1.71875 0.734375q0.53125 0.71875 0.53125 1.9375l0 3.96875l-0.90625 0l-0.09375 -0.765625l-0.03125 0q-0.453125 0.359375 -1.0 0.640625q-0.53125 0.28125 -1.15625 0.28125zm0.328125 -0.875q0.46875 0 0.875 -0.21875q0.421875 -0.234375 0.890625 -0.65625l0 -1.796875q-1.625 0.203125 -2.265625 0.609375q-0.640625 0.390625 -0.640625 1.015625q0 0.546875 0.328125 0.796875q0.328125 0.25 0.8125 0.25zm4.904846 0.71875l0 -6.484375l1.09375 0l0 6.484375l-1.09375 0zm0.5625 -7.8125q-0.3125 0 -0.53125 -0.1875q-0.203125 -0.203125 -0.203125 -0.53125q0 -0.3125 0.203125 -0.515625q0.21875 -0.203125 0.53125 -0.203125q0.3125 0 0.515625 0.203125q0.21875 0.203125 0.21875 0.515625q0 0.328125 -0.21875 0.53125q-0.203125 0.1875 -0.515625 0.1875zm2.7161865 7.8125l0 -6.484375l0.90625 0l0.09375 1.1875l0.03125 0q0.34375 -0.625 0.8125 -0.984375q0.484375 -0.359375 1.03125 -0.359375q0.390625 0 0.703125 0.140625l-0.21875 0.953125q-0.15625 -0.046875 -0.296875 -0.078125q-0.125 -0.03125 -0.328125 -0.03125q-0.421875 0 -0.875 0.34375q-0.4375 0.328125 -0.765625 1.15625l0 4.15625l-1.09375 0zm7.116516 0.15625q-0.859375 0 -1.578125 -0.40625q-0.703125 -0.40625 -1.125 -1.15625q-0.40625 -0.765625 -0.40625 -1.8125q0 -1.078125 0.421875 -1.828125q0.421875 -0.765625 1.078125 -1.171875q0.671875 -0.421875 1.40625 -0.421875q1.25 0 1.921875 0.828125q0.671875 0.828125 0.671875 2.21875q0 0.171875 -0.015625 0.34375q0 0.15625 -0.03125 0.28125l-4.375 0q0.078125 1.015625 0.65625 1.640625q0.578125 0.609375 1.515625 0.609375q0.453125 0 0.84375 -0.140625q0.40625 -0.140625 0.765625 -0.359375l0.375 0.71875q-0.40625 0.265625 -0.9375 0.46875q-0.515625 0.1875 -1.1875 0.1875zm-2.046875 -3.921875l3.46875 0q0 -0.984375 -0.421875 -1.484375q-0.40625 -0.515625 -1.171875 -0.515625q-0.6875 0 -1.234375 0.53125q-0.53125 0.515625 -0.640625 1.46875z" fill-rule="nonzero"/><path fill="#000000" fill-opacity="0.0" d="m281.82962 396.56738l210.71567 0l0 80.06128l-210.71567 0z" fill-rule="evenodd"/><path stroke="#000000" stroke-width="1.0" stroke-linejoin="round" stroke-linecap="butt" d="m281.82962 396.56738l210.71567 0l0 80.06128l-210.71567 0z" fill-rule="evenodd"/><path fill="#000000" d="m353.67783 429.00742l-0.203125 0.796875l1.84375 0l-0.203125 -0.796875q-0.171875 -0.65625 -0.359375 -1.390625q-0.171875 -0.734375 -0.34375 -1.421875l-0.046875 0q-0.171875 0.703125 -0.34375 1.4375q-0.15625 0.71875 -0.34375 1.375zm-3.140625 4.390625l2.71875 -8.6875l2.359375 0l2.71875 8.6875l-2.078125 0l-0.53125 -2.0625l-2.65625 0l-0.53125 2.0625l-2.0 0zm7.7959595 0l2.03125 -3.4375l-1.90625 -3.171875l2.09375 0l0.59375 1.0625q0.125 0.28125 0.265625 0.578125q0.15625 0.28125 0.296875 0.5625l0.046875 0q0.109375 -0.28125 0.21875 -0.5625q0.125 -0.296875 0.234375 -0.578125l0.453125 -1.0625l2.03125 0l-1.921875 3.390625l2.03125 3.21875l-2.09375 0l-0.640625 -1.09375q-0.15625 -0.28125 -0.3125 -0.5625q-0.15625 -0.296875 -0.3125 -0.578125l-0.0625 0q-0.109375 0.28125 -0.25 0.5625q-0.125 0.28125 -0.25 0.578125l-0.515625 1.09375l-2.03125 0zm10.144592 0.15625q-0.953125 0 -1.71875 -0.40625q-0.75 -0.421875 -1.1875 -1.1875q-0.4375 -0.78125 -0.4375 -1.875q0 -1.078125 0.4375 -1.84375q0.453125 -0.78125 1.171875 -1.1875q0.71875 -0.421875 1.5 -0.421875q0.953125 0 1.5625 0.421875q0.625 0.40625 0.9375 1.125q0.3125 0.71875 0.3125 1.625q0 0.25 -0.03125 0.5q-0.015625 0.234375 -0.046875 0.359375l-3.953125 0q0.125 0.71875 0.59375 1.0625q0.46875 0.34375 1.125 0.34375q0.703125 0 1.421875 -0.4375l0.65625 1.171875q-0.5 0.359375 -1.140625 0.5625q-0.625 0.1875 -1.203125 0.1875zm-1.46875 -4.1875l2.390625 0q0 -0.546875 -0.265625 -0.890625q-0.265625 -0.359375 -0.84375 -0.359375q-0.453125 0 -0.8125 0.3125q-0.359375 0.3125 -0.46875 0.9375zm7.2164307 4.1875q-1.015625 0 -1.421875 -0.59375q-0.390625 -0.609375 -0.390625 -1.609375l0 -7.296875l1.96875 0l0 7.375q0 0.296875 0.109375 0.421875q0.109375 0.125 0.234375 0.125q0.0625 0 0.109375 0q0.046875 -0.015625 0.125 -0.03125l0.25 1.453125q-0.171875 0.0625 -0.421875 0.109375q-0.234375 0.046875 -0.5625 0.046875zm6.8680725 -4.546875l-0.203125 0.796875l1.84375 0l-0.203125 -0.796875q-0.171875 -0.65625 -0.359375 -1.390625q-0.171875 -0.734375 -0.34375 -1.421875l-0.046875 0q-0.171875 0.703125 -0.34375 1.4375q-0.15625 0.71875 -0.34375 1.375zm-3.140625 4.390625l2.71875 -8.6875l2.359375 0l2.71875 8.6875l-2.078125 0l-0.53125 -2.0625l-2.65625 0l-0.53125 2.0625l-2.0 0zm8.574493 0l0 -6.609375l1.609375 0l0.125 0.84375l0.0625 0q0.421875 -0.40625 0.9375 -0.703125q0.515625 -0.296875 1.171875 -0.296875q1.078125 0 1.5625 0.71875q0.5 0.703125 0.5 1.9375l0 4.109375l-1.96875 0l0 -3.859375q0 -0.71875 -0.1875 -0.984375q-0.1875 -0.265625 -0.625 -0.265625q-0.375 0 -0.640625 0.171875q-0.265625 0.171875 -0.578125 0.46875l0 4.46875l-1.96875 0zm10.170532 0.15625q-1.21875 0 -1.75 -0.703125q-0.515625 -0.703125 -0.515625 -1.859375l0 -2.671875l-0.90625 0l0 -1.453125l1.0 -0.078125l0.234375 -1.765625l1.625 0l0 1.765625l1.578125 0l0 1.53125l-1.578125 0l0 2.65625q0 0.5625 0.234375 0.8125q0.234375 0.234375 0.609375 0.234375q0.171875 0 0.328125 -0.03125q0.171875 -0.046875 0.3125 -0.09375l0.296875 1.421875q-0.25 0.078125 -0.625 0.15625q-0.359375 0.078125 -0.84375 0.078125zm5.1615295 0q-0.84375 0 -1.578125 -0.40625q-0.734375 -0.40625 -1.1875 -1.1875q-0.453125 -0.78125 -0.453125 -1.875q0 -1.09375 0.453125 -1.859375q0.453125 -0.78125 1.1875 -1.1875q0.734375 -0.40625 1.578125 -0.40625q0.84375 0 1.578125 0.40625q0.734375 0.40625 1.1875 1.1875q0.453125 0.765625 0.453125 1.859375q0 1.09375 -0.453125 1.875q-0.453125 0.78125 -1.1875 1.1875q-0.734375 0.40625 -1.578125 0.40625zm0 -1.578125q0.609375 0 0.90625 -0.515625q0.3125 -0.515625 0.3125 -1.375q0 -0.859375 -0.3125 -1.359375q-0.296875 -0.515625 -0.90625 -0.515625q-0.609375 0 -0.90625 0.515625q-0.296875 0.5 -0.296875 1.359375q0 0.859375 0.296875 1.375q0.296875 0.515625 0.90625 0.515625zm4.5533447 1.421875l0 -6.609375l1.96875 0l0 6.609375l-1.96875 0zm0.984375 -7.578125q-0.5 0 -0.8125 -0.28125q-0.296875 -0.28125 -0.296875 -0.75q0 -0.46875 0.296875 -0.75q0.3125 -0.28125 0.8125 -0.28125q0.5 0 0.796875 0.28125q0.3125 0.28125 0.3125 0.75q0 0.46875 -0.3125 0.75q-0.296875 0.28125 -0.796875 0.28125zm2.6941833 7.578125l0 -6.609375l1.609375 0l0.125 0.84375l0.0625 0q0.421875 -0.40625 0.9375 -0.703125q0.515625 -0.296875 1.171875 -0.296875q1.078125 0 1.5625 0.71875q0.5 0.703125 0.5 1.9375l0 4.109375l-1.96875 0l0 -3.859375q0 -0.71875 -0.1875 -0.984375q-0.1875 -0.265625 -0.625 -0.265625q-0.375 0 -0.640625 0.171875q-0.265625 0.171875 -0.578125 0.46875l0 4.46875l-1.96875 0zm10.592407 0.15625q-0.953125 0 -1.71875 -0.40625q-0.75 -0.421875 -1.1875 -1.1875q-0.4375 -0.78125 -0.4375 -1.875q0 -1.078125 0.4375 -1.84375q0.453125 -0.78125 1.171875 -1.1875q0.71875 -0.421875 1.5 -0.421875q0.953125 0 1.5625 0.421875q0.625 0.40625 0.9375 1.125q0.3125 0.71875 0.3125 1.625q0 0.25 -0.03125 0.5q-0.015625 0.234375 -0.046875 0.359375l-3.953125 0q0.125 0.71875 0.59375 1.0625q0.46875 0.34375 1.125 0.34375q0.703125 0 1.421875 -0.4375l0.65625 1.171875q-0.5 0.359375 -1.140625 0.5625q-0.625 0.1875 -1.203125 0.1875zm-1.46875 -4.1875l2.390625 0q0 -0.546875 -0.265625 -0.890625q-0.265625 -0.359375 -0.84375 -0.359375q-0.453125 0 -0.8125 0.3125q-0.359375 0.3125 -0.46875 0.9375z" fill-rule="nonzero"/><path fill="#000000" d="m361.89438 449.39804l0 -8.75l1.109375 0l0 8.75l-1.109375 0zm3.3959045 0l0 -6.484375l0.90625 0l0.09375 0.9375l0.03125 0q0.46875 -0.46875 0.984375 -0.78125q0.53125 -0.3125 1.203125 -0.3125q1.015625 0 1.484375 0.65625q0.484375 0.640625 0.484375 1.875l0 4.109375l-1.09375 0l0 -3.953125q0 -0.90625 -0.296875 -1.3125q-0.296875 -0.421875 -0.9375 -0.421875q-0.484375 0 -0.890625 0.25q-0.390625 0.25 -0.875 0.75l0 4.6875l-1.09375 0zm9.477966 2.984375q-1.1875 0 -1.9375 -0.453125q-0.75 -0.453125 -0.75 -1.296875q0 -0.40625 0.25 -0.796875q0.265625 -0.375 0.703125 -0.671875l0 -0.046875q-0.234375 -0.140625 -0.40625 -0.40625q-0.171875 -0.265625 -0.171875 -0.640625q0 -0.421875 0.21875 -0.71875q0.234375 -0.3125 0.484375 -0.484375l0 -0.046875q-0.3125 -0.28125 -0.578125 -0.734375q-0.25 -0.453125 -0.25 -1.015625q0 -0.703125 0.328125 -1.21875q0.328125 -0.53125 0.890625 -0.8125q0.5625 -0.28125 1.21875 -0.28125q0.265625 0 0.5 0.046875q0.25 0.046875 0.421875 0.109375l2.25 0l0 0.84375l-1.328125 0q0.21875 0.21875 0.375 0.578125q0.15625 0.34375 0.15625 0.75q0 0.703125 -0.328125 1.21875q-0.3125 0.5 -0.859375 0.78125q-0.53125 0.265625 -1.1875 0.265625q-0.515625 0 -0.96875 -0.234375q-0.1875 0.15625 -0.3125 0.34375q-0.109375 0.171875 -0.109375 0.4375q0 0.296875 0.25 0.5q0.25 0.203125 0.890625 0.203125l1.265625 0q1.125 0 1.6875 0.375q0.578125 0.359375 0.578125 1.171875q0 0.59375 -0.40625 1.09375q-0.40625 0.515625 -1.140625 0.828125q-0.71875 0.3125 -1.734375 0.3125zm0 -5.765625q0.5625 0 0.96875 -0.421875q0.40625 -0.421875 0.40625 -1.125q0 -0.703125 -0.40625 -1.109375q-0.390625 -0.40625 -0.96875 -0.40625q-0.578125 0 -0.984375 0.40625q-0.390625 0.40625 -0.390625 1.109375q0 0.703125 0.40625 1.125q0.40625 0.421875 0.96875 0.421875zm0.15625 5.0q0.9375 0 1.484375 -0.40625q0.5625 -0.40625 0.5625 -0.90625q0 -0.453125 -0.34375 -0.625q-0.328125 -0.171875 -0.953125 -0.171875l-1.125 0q-0.1875 0 -0.40625 -0.03125q-0.21875 -0.03125 -0.4375 -0.078125q-0.34375 0.25 -0.5 0.53125q-0.15625 0.28125 -0.15625 0.5625q0 0.515625 0.5 0.8125q0.5 0.3125 1.375 0.3125zm6.81192 -2.0625q-0.859375 0 -1.578125 -0.40625q-0.703125 -0.40625 -1.125 -1.15625q-0.40625 -0.765625 -0.40625 -1.8125q0 -1.078125 0.421875 -1.828125q0.421875 -0.765625 1.078125 -1.171875q0.671875 -0.421875 1.40625 -0.421875q1.25 0 1.921875 0.828125q0.671875 0.828125 0.671875 2.21875q0 0.171875 -0.015625 0.34375q0 0.15625 -0.03125 0.28125l-4.375 0q0.078125 1.015625 0.65625 1.640625q0.578125 0.609375 1.515625 0.609375q0.453125 0 0.84375 -0.140625q0.40625 -0.140625 0.765625 -0.359375l0.375 0.71875q-0.40625 0.265625 -0.9375 0.46875q-0.515625 0.1875 -1.1875 0.1875zm-2.046875 -3.921875l3.46875 0q0 -0.984375 -0.421875 -1.484375q-0.40625 -0.515625 -1.171875 -0.515625q-0.6875 0 -1.234375 0.53125q-0.53125 0.515625 -0.640625 1.46875zm1.65625 -3.875l-0.5625 -0.546875l1.890625 -2.21875l0.765625 0.734375l-2.09375 2.03125zm4.3763733 7.640625l0 -6.484375l0.90625 0l0.09375 0.9375l0.03125 0q0.46875 -0.46875 0.984375 -0.78125q0.53125 -0.3125 1.203125 -0.3125q1.015625 0 1.484375 0.65625q0.484375 0.640625 0.484375 1.875l0 4.109375l-1.09375 0l0 -3.953125q0 -0.90625 -0.296875 -1.3125q-0.296875 -0.421875 -0.9375 -0.421875q-0.484375 0 -0.890625 0.25q-0.390625 0.25 -0.875 0.75l0 4.6875l-1.09375 0zm7.290436 0l0 -6.484375l1.09375 0l0 6.484375l-1.09375 0zm0.5625 -7.8125q-0.3125 0 -0.53125 -0.1875q-0.203125 -0.203125 -0.203125 -0.53125q0 -0.3125 0.203125 -0.515625q0.21875 -0.203125 0.53125 -0.203125q0.3125 0 0.515625 0.203125q0.21875 0.203125 0.21875 0.515625q0 0.328125 -0.21875 0.53125q-0.203125 0.1875 -0.515625 0.1875zm5.341217 7.96875q-0.859375 0 -1.578125 -0.40625q-0.703125 -0.40625 -1.125 -1.15625q-0.40625 -0.765625 -0.40625 -1.8125q0 -1.078125 0.421875 -1.828125q0.421875 -0.765625 1.078125 -1.171875q0.671875 -0.421875 1.40625 -0.421875q1.25 0 1.921875 0.828125q0.671875 0.828125 0.671875 2.21875q0 0.171875 -0.015625 0.34375q0 0.15625 -0.03125 0.28125l-4.375 0q0.078125 1.015625 0.65625 1.640625q0.578125 0.609375 1.515625 0.609375q0.453125 0 0.84375 -0.140625q0.40625 -0.140625 0.765625 -0.359375l0.375 0.71875q-0.40625 0.265625 -0.9375 0.46875q-0.515625 0.1875 -1.1875 0.1875zm-2.046875 -3.921875l3.46875 0q0 -0.984375 -0.421875 -1.484375q-0.40625 -0.515625 -1.171875 -0.515625q-0.6875 0 -1.234375 0.53125q-0.53125 0.515625 -0.640625 1.46875zm7.923218 3.921875q-1.03125 0 -1.515625 -0.640625q-0.46875 -0.65625 -0.46875 -1.890625l0 -4.109375l1.109375 0l0 3.96875q0 0.90625 0.28125 1.328125q0.28125 0.40625 0.921875 0.40625q0.515625 0 0.90625 -0.265625q0.390625 -0.265625 0.84375 -0.828125l0 -4.609375l1.09375 0l0 6.484375l-0.90625 0l-0.09375 -1.015625l-0.03125 0q-0.453125 0.53125 -0.96875 0.859375q-0.5 0.3125 -1.171875 0.3125zm5.3598633 -0.15625l0 -6.484375l0.90625 0l0.09375 1.1875l0.03125 0q0.34375 -0.625 0.8125 -0.984375q0.484375 -0.359375 1.03125 -0.359375q0.390625 0 0.703125 0.140625l-0.21875 0.953125q-0.15625 -0.046875 -0.296875 -0.078125q-0.125 -0.03125 -0.328125 -0.03125q-0.421875 0 -0.875 0.34375q-0.4375 0.328125 -0.765625 1.15625l0 4.15625l-1.09375 0z" fill-rule="nonzero"/><path fill="#000000" fill-opacity="0.0" d="m502.98447 219.101l0 -43.696426l118.80313 0l0 -43.705154" fill-rule="evenodd"/><path stroke="#000000" stroke-width="1.0" stroke-linejoin="round" stroke-linecap="butt" d="m502.98447 215.31099l0 -39.906418l118.80313 0l0 -39.91516" fill-rule="evenodd"/><path stroke="#000000" stroke-width="1.0" stroke-linecap="butt" d="m504.62946 215.31099l0 3.2899933l-3.2900085 0l0 -3.2899933l3.2900085 0z" fill-rule="nonzero"/><path stroke="#000000" stroke-width="1.0" stroke-linecap="butt" d="m620.1426 135.48941l0 -3.2899933l3.290039 0l0 3.2899933l-3.290039 0z" fill-rule="nonzero"/><path fill="#000000" fill-opacity="0.0" d="m278.82596 51.630287l210.71564 0l0 80.06127l-210.71564 0z" fill-rule="evenodd"/><path stroke="#000000" stroke-width="1.0" stroke-linejoin="round" stroke-linecap="butt" d="m278.82596 51.630287l210.71564 0l0 80.06127l-210.71564 0z" fill-rule="evenodd"/><path fill="#000000" d="m344.36633 88.61717q-0.84375 0 -1.6875 -0.3125q-0.84375 -0.328125 -1.515625 -0.9375l1.125 -1.34375q0.453125 0.390625 1.03125 0.65625q0.578125 0.25 1.109375 0.25q0.609375 0 0.90625 -0.21875q0.296875 -0.234375 0.296875 -0.625q0 -0.40625 -0.34375 -0.59375q-0.328125 -0.203125 -0.90625 -0.4375l-1.125 -0.484375q-0.4375 -0.1875 -0.84375 -0.5q-0.40625 -0.3125 -0.65625 -0.78125q-0.25 -0.46875 -0.25 -1.09375q0 -0.71875 0.390625 -1.296875q0.390625 -0.59375 1.09375 -0.9375q0.703125 -0.34375 1.609375 -0.34375q0.75 0 1.484375 0.296875q0.75 0.28125 1.3125 0.84375l-1.0 1.234375q-0.421875 -0.328125 -0.859375 -0.5q-0.421875 -0.1875 -0.9375 -0.1875q-0.5 0 -0.8125 0.203125q-0.296875 0.203125 -0.296875 0.578125q0 0.40625 0.375 0.609375q0.390625 0.1875 0.953125 0.421875l1.109375 0.453125q0.796875 0.3125 1.25 0.875q0.46875 0.5625 0.46875 1.484375q0 0.71875 -0.390625 1.328125q-0.375 0.609375 -1.109375 0.984375q-0.734375 0.375 -1.78125 0.375zm6.771454 0q-1.21875 0 -1.75 -0.703125q-0.515625 -0.703125 -0.515625 -1.859375l0 -2.671875l-0.90625 0l0 -1.453125l1.0 -0.078125l0.234375 -1.765625l1.625 0l0 1.765625l1.578125 0l0 1.53125l-1.578125 0l0 2.65625q0 0.5625 0.234375 0.8125q0.234375 0.234375 0.609375 0.234375q0.171875 0 0.328125 -0.03125q0.171875 -0.046875 0.3125 -0.09375l0.296875 1.421875q-0.25 0.078125 -0.625 0.15625q-0.359375 0.078125 -0.84375 0.078125zm5.2865295 0q-0.953125 0 -1.71875 -0.40625q-0.75 -0.421875 -1.1875 -1.1875q-0.4375 -0.78125 -0.4375 -1.875q0 -1.078125 0.4375 -1.84375q0.453125 -0.78125 1.171875 -1.1875q0.71875 -0.421875 1.5 -0.421875q0.953125 0 1.5625 0.421875q0.625 0.40625 0.9375 1.125q0.3125 0.71875 0.3125 1.625q0 0.25 -0.03125 0.5q-0.015625 0.234375 -0.046875 0.359375l-3.953125 0q0.125 0.71875 0.59375 1.0625q0.46875 0.34375 1.125 0.34375q0.703125 0 1.421875 -0.4375l0.65625 1.171875q-0.5 0.359375 -1.140625 0.5625q-0.625 0.1875 -1.203125 0.1875zm-1.46875 -4.1875l2.390625 0q0 -0.546875 -0.265625 -0.890625q-0.265625 -0.359375 -0.84375 -0.359375q-0.453125 0 -0.8125 0.3125q-0.359375 0.3125 -0.46875 0.9375zm1.359375 -3.59375l-0.96875 -0.953125l2.046875 -2.4375l1.328125 1.296875l-2.40625 2.09375zm4.0445557 10.078125l0 -9.0625l1.609375 0l0.125 0.65625l0.0625 0q0.375 -0.34375 0.859375 -0.578125q0.5 -0.234375 1.015625 -0.234375q1.203125 0 1.890625 0.921875q0.703125 0.90625 0.703125 2.4375q0 1.125 -0.40625 1.921875q-0.40625 0.796875 -1.046875 1.21875q-0.625 0.421875 -1.34375 0.421875q-0.421875 0 -0.828125 -0.171875q-0.390625 -0.1875 -0.734375 -0.515625l0.0625 1.046875l0 1.9375l-1.96875 0zm3.015625 -3.890625q0.515625 0 0.875 -0.46875q0.359375 -0.46875 0.359375 -1.484375q0 -1.78125 -1.15625 -1.78125q-0.5625 0 -1.125 0.59375l0 2.71875q0.265625 0.234375 0.53125 0.328125q0.265625 0.09375 0.515625 0.09375zm4.6213684 1.4375l0 -9.34375l1.96875 0l0 2.296875l-0.09375 1.1875q0.375 -0.34375 0.875 -0.625q0.5 -0.28125 1.15625 -0.28125q1.078125 0 1.5625 0.71875q0.5 0.703125 0.5 1.9375l0 4.109375l-1.96875 0l0 -3.859375q0 -0.71875 -0.1875 -0.984375q-0.1875 -0.265625 -0.625 -0.265625q-0.375 0 -0.640625 0.171875q-0.265625 0.171875 -0.578125 0.46875l0 4.46875l-1.96875 0zm9.282227 0.15625q-0.90625 0 -1.4375 -0.578125q-0.53125 -0.578125 -0.53125 -1.421875q0 -1.03125 0.875 -1.609375q0.875 -0.59375 2.84375 -0.796875q-0.03125 -0.4375 -0.265625 -0.703125q-0.234375 -0.265625 -0.78125 -0.265625q-0.40625 0 -0.84375 0.171875q-0.421875 0.15625 -0.890625 0.4375l-0.71875 -1.296875q0.625 -0.390625 1.34375 -0.625q0.71875 -0.234375 1.484375 -0.234375q1.265625 0 1.9375 0.734375q0.6875 0.734375 0.6875 2.25l0 3.78125l-1.59375 0l-0.140625 -0.6875l-0.046875 0q-0.421875 0.375 -0.890625 0.609375q-0.46875 0.234375 -1.03125 0.234375zm0.671875 -1.515625q0.328125 0 0.578125 -0.15625q0.25 -0.15625 0.5 -0.40625l0 -1.15625q-1.046875 0.125 -1.453125 0.421875q-0.390625 0.28125 -0.390625 0.671875q0 0.3125 0.203125 0.46875q0.21875 0.15625 0.5625 0.15625zm4.6801453 1.359375l0 -6.609375l1.609375 0l0.125 0.84375l0.0625 0q0.421875 -0.40625 0.9375 -0.703125q0.515625 -0.296875 1.171875 -0.296875q1.078125 0 1.5625 0.71875q0.5 0.703125 0.5 1.9375l0 4.109375l-1.96875 0l0 -3.859375q0 -0.71875 -0.1875 -0.984375q-0.1875 -0.265625 -0.625 -0.265625q-0.375 0 -0.640625 0.171875q-0.265625 0.171875 -0.578125 0.46875l0 4.46875l-1.96875 0zm10.592407 0.15625q-0.953125 0 -1.71875 -0.40625q-0.75 -0.421875 -1.1875 -1.1875q-0.4375 -0.78125 -0.4375 -1.875q0 -1.078125 0.4375 -1.84375q0.453125 -0.78125 1.171875 -1.1875q0.71875 -0.421875 1.5 -0.421875q0.953125 0 1.5625 0.421875q0.625 0.40625 0.9375 1.125q0.3125 0.71875 0.3125 1.625q0 0.25 -0.03125 0.5q-0.015625 0.234375 -0.046875 0.359375l-3.953125 0q0.125 0.71875 0.59375 1.0625q0.46875 0.34375 1.125 0.34375q0.703125 0 1.421875 -0.4375l0.65625 1.171875q-0.5 0.359375 -1.140625 0.5625q-0.625 0.1875 -1.203125 0.1875zm-1.46875 -4.1875l2.390625 0q0 -0.546875 -0.265625 -0.890625q-0.265625 -0.359375 -0.84375 -0.359375q-0.453125 0 -0.8125 0.3125q-0.359375 0.3125 -0.46875 0.9375zm8.241425 4.03125l0 -8.6875l1.953125 0l0 3.34375l3.0 0l0 -3.34375l1.96875 0l0 8.6875l-1.96875 0l0 -3.625l-3.0 0l0 3.625l-1.953125 0zm10.811249 0.15625q-1.09375 0 -1.578125 -0.703125q-0.484375 -0.71875 -0.484375 -1.953125l0 -4.109375l1.96875 0l0 3.84375q0 0.71875 0.1875 1.0q0.203125 0.265625 0.625 0.265625q0.375 0 0.625 -0.171875q0.265625 -0.1875 0.5625 -0.5625l0 -4.375l1.953125 0l0 6.609375l-1.59375 0l-0.15625 -0.921875l-0.03125 0q-0.421875 0.5 -0.921875 0.796875q-0.484375 0.28125 -1.15625 0.28125zm8.414093 0q-0.84375 0 -1.578125 -0.40625q-0.734375 -0.40625 -1.1875 -1.1875q-0.453125 -0.78125 -0.453125 -1.875q0 -1.09375 0.453125 -1.859375q0.453125 -0.78125 1.1875 -1.1875q0.734375 -0.40625 1.578125 -0.40625q0.84375 0 1.578125 0.40625q0.734375 0.40625 1.1875 1.1875q0.453125 0.765625 0.453125 1.859375q0 1.09375 -0.453125 1.875q-0.453125 0.78125 -1.1875 1.1875q-0.734375 0.40625 -1.578125 0.40625zm0 -1.578125q0.609375 0 0.90625 -0.515625q0.3125 -0.515625 0.3125 -1.375q0 -0.859375 -0.3125 -1.359375q-0.296875 -0.515625 -0.90625 -0.515625q-0.609375 0 -0.90625 0.515625q-0.296875 0.5 -0.296875 1.359375q0 0.859375 0.296875 1.375q0.296875 0.515625 0.90625 0.515625zm6.75354 1.578125q-1.21875 0 -1.75 -0.703125q-0.515625 -0.703125 -0.515625 -1.859375l0 -2.671875l-0.90625 0l0 -1.453125l1.0 -0.078125l0.234375 -1.765625l1.625 0l0 1.765625l1.578125 0l0 1.53125l-1.578125 0l0 2.65625q0 0.5625 0.234375 0.8125q0.234375 0.234375 0.609375 0.234375q0.171875 0 0.328125 -0.03125q0.171875 -0.046875 0.3125 -0.09375l0.296875 1.421875q-0.25 0.078125 -0.625 0.15625q-0.359375 0.078125 -0.84375 0.078125z" fill-rule="nonzero"/><path fill="#000000" d="m324.82776 104.61717q-1.21875 0 -1.953125 -0.875q-0.734375 -0.890625 -0.734375 -2.5q0 -1.0625 0.390625 -1.828125q0.390625 -0.765625 1.03125 -1.171875q0.65625 -0.421875 1.390625 -0.421875q0.5625 0 0.96875 0.203125q0.421875 0.203125 0.84375 0.546875l-0.046875 -1.109375l0 -2.484375l1.09375 0l0 9.484375l-0.90625 0l-0.09375 -0.765625l-0.03125 0q-0.375 0.375 -0.890625 0.65625q-0.5 0.265625 -1.0625 0.265625zm0.234375 -0.921875q0.84375 0 1.65625 -0.890625l0 -3.375q-0.421875 -0.375 -0.796875 -0.53125q-0.375 -0.15625 -0.78125 -0.15625q-0.515625 0 -0.9375 0.3125q-0.421875 0.3125 -0.671875 0.875q-0.25 0.546875 -0.25 1.296875q0 1.15625 0.453125 1.8125q0.46875 0.65625 1.328125 0.65625zm4.9439697 0.765625l0 -6.484375l1.09375 0l0 6.484375l-1.09375 0zm0.5625 -7.8125q-0.3125 0 -0.53125 -0.1875q-0.203125 -0.203125 -0.203125 -0.53125q0 -0.3125 0.203125 -0.515625q0.21875 -0.203125 0.53125 -0.203125q0.3125 0 0.515625 0.203125q0.21875 0.203125 0.21875 0.515625q0 0.328125 -0.21875 0.53125q-0.203125 0.1875 -0.515625 0.1875zm2.7161865 7.8125l0 -6.484375l0.90625 0l0.09375 1.1875l0.03125 0q0.34375 -0.625 0.8125 -0.984375q0.484375 -0.359375 1.03125 -0.359375q0.390625 0 0.703125 0.140625l-0.21875 0.953125q-0.15625 -0.046875 -0.296875 -0.078125q-0.125 -0.03125 -0.328125 -0.03125q-0.421875 0 -0.875 0.34375q-0.4375 0.328125 -0.765625 1.15625l0 4.15625l-1.09375 0zm7.116516 0.15625q-0.859375 0 -1.578125 -0.40625q-0.703125 -0.40625 -1.125 -1.15625q-0.40625 -0.765625 -0.40625 -1.8125q0 -1.078125 0.421875 -1.828125q0.421875 -0.765625 1.078125 -1.171875q0.671875 -0.421875 1.40625 -0.421875q1.25 0 1.921875 0.828125q0.671875 0.828125 0.671875 2.21875q0 0.171875 -0.015625 0.34375q0 0.15625 -0.03125 0.28125l-4.375 0q0.078125 1.015625 0.65625 1.640625q0.578125 0.609375 1.515625 0.609375q0.453125 0 0.84375 -0.140625q0.40625 -0.140625 0.765625 -0.359375l0.375 0.71875q-0.40625 0.265625 -0.9375 0.46875q-0.515625 0.1875 -1.1875 0.1875zm-2.046875 -3.921875l3.46875 0q0 -0.984375 -0.421875 -1.484375q-0.40625 -0.515625 -1.171875 -0.515625q-0.6875 0 -1.234375 0.53125q-0.53125 0.515625 -0.640625 1.46875zm8.595123 3.921875q-0.859375 0 -1.5625 -0.390625q-0.6875 -0.40625 -1.09375 -1.15625q-0.390625 -0.765625 -0.390625 -1.828125q0 -1.09375 0.4375 -1.859375q0.4375 -0.765625 1.140625 -1.15625q0.71875 -0.40625 1.546875 -0.40625q0.640625 0 1.09375 0.234375q0.46875 0.21875 0.796875 0.53125l-0.5625 0.71875q-0.28125 -0.25 -0.59375 -0.40625q-0.3125 -0.171875 -0.703125 -0.171875q-0.578125 0 -1.046875 0.3125q-0.453125 0.3125 -0.71875 0.890625q-0.25 0.5625 -0.25 1.3125q0 1.09375 0.546875 1.78125q0.5625 0.6875 1.453125 0.6875q0.453125 0 0.828125 -0.1875q0.390625 -0.203125 0.6875 -0.46875l0.484375 0.734375q-0.453125 0.390625 -0.984375 0.609375q-0.53125 0.21875 -1.109375 0.21875zm5.413025 0q-1.03125 0 -1.4375 -0.59375q-0.40625 -0.609375 -0.40625 -1.5625l0 -3.578125l-0.96875 0l0 -0.828125l1.015625 -0.078125l0.140625 -1.8125l0.921875 0l0 1.8125l1.734375 0l0 0.90625l-1.734375 0l0 3.59375q0 0.59375 0.21875 0.921875q0.21875 0.328125 0.78125 0.328125q0.171875 0 0.359375 -0.0625q0.203125 -0.0625 0.375 -0.109375l0.203125 0.828125q-0.265625 0.09375 -0.578125 0.15625q-0.3125 0.078125 -0.625 0.078125zm4.911957 0q-0.859375 0 -1.578125 -0.40625q-0.703125 -0.40625 -1.125 -1.15625q-0.40625 -0.765625 -0.40625 -1.8125q0 -1.078125 0.421875 -1.828125q0.421875 -0.765625 1.078125 -1.171875q0.671875 -0.421875 1.40625 -0.421875q1.25 0 1.921875 0.828125q0.671875 0.828125 0.671875 2.21875q0 0.171875 -0.015625 0.34375q0 0.15625 -0.03125 0.28125l-4.375 0q0.078125 1.015625 0.65625 1.640625q0.578125 0.609375 1.515625 0.609375q0.453125 0 0.84375 -0.140625q0.40625 -0.140625 0.765625 -0.359375l0.375 0.71875q-0.40625 0.265625 -0.9375 0.46875q-0.515625 0.1875 -1.1875 0.1875zm-2.046875 -3.921875l3.46875 0q0 -0.984375 -0.421875 -1.484375q-0.40625 -0.515625 -1.171875 -0.515625q-0.6875 0 -1.234375 0.53125q-0.53125 0.515625 -0.640625 1.46875zm7.9232483 3.921875q-1.03125 0 -1.515625 -0.640625q-0.46875 -0.65625 -0.46875 -1.890625l0 -4.109375l1.109375 0l0 3.96875q0 0.90625 0.28125 1.328125q0.28125 0.40625 0.921875 0.40625q0.515625 0 0.90625 -0.265625q0.390625 -0.265625 0.84375 -0.828125l0 -4.609375l1.09375 0l0 6.484375l-0.90625 0l-0.09375 -1.015625l-0.03125 0q-0.453125 0.53125 -0.96875 0.859375q-0.5 0.3125 -1.171875 0.3125zm5.359833 -0.15625l0 -6.484375l0.90625 0l0.09375 1.1875l0.03125 0q0.34375 -0.625 0.8125 -0.984375q0.484375 -0.359375 1.03125 -0.359375q0.390625 0 0.703125 0.140625l-0.21875 0.953125q-0.15625 -0.046875 -0.296875 -0.078125q-0.125 -0.03125 -0.328125 -0.03125q-0.421875 0 -0.875 0.34375q-0.4375 0.328125 -0.765625 1.15625l0 4.15625l-1.09375 0zm9.509216 0.15625q-1.21875 0 -1.953125 -0.875q-0.734375 -0.890625 -0.734375 -2.5q0 -1.0625 0.390625 -1.828125q0.390625 -0.765625 1.03125 -1.171875q0.65625 -0.421875 1.390625 -0.421875q0.5625 0 0.96875 0.203125q0.421875 0.203125 0.84375 0.546875l-0.046875 -1.109375l0 -2.484375l1.09375 0l0 9.484375l-0.90625 0l-0.09375 -0.765625l-0.03125 0q-0.375 0.375 -0.890625 0.65625q-0.5 0.265625 -1.0625 0.265625zm0.234375 -0.921875q0.84375 0 1.65625 -0.890625l0 -3.375q-0.421875 -0.375 -0.796875 -0.53125q-0.375 -0.15625 -0.78125 -0.15625q-0.515625 0 -0.9375 0.3125q-0.421875 0.3125 -0.671875 0.875q-0.25 0.546875 -0.25 1.296875q0 1.15625 0.453125 1.8125q0.46875 0.65625 1.328125 0.65625zm7.5689697 0.921875q-0.859375 0 -1.578125 -0.40625q-0.703125 -0.40625 -1.125 -1.15625q-0.40625 -0.765625 -0.40625 -1.8125q0 -1.078125 0.421875 -1.828125q0.421875 -0.765625 1.078125 -1.171875q0.671875 -0.421875 1.40625 -0.421875q1.25 0 1.921875 0.828125q0.671875 0.828125 0.671875 2.21875q0 0.171875 -0.015625 0.34375q0 0.15625 -0.03125 0.28125l-4.375 0q0.078125 1.015625 0.65625 1.640625q0.578125 0.609375 1.515625 0.609375q0.453125 0 0.84375 -0.140625q0.40625 -0.140625 0.765625 -0.359375l0.375 0.71875q-0.40625 0.265625 -0.9375 0.46875q-0.515625 0.1875 -1.1875 0.1875zm-2.046875 -3.921875l3.46875 0q0 -0.984375 -0.421875 -1.484375q-0.40625 -0.515625 -1.171875 -0.515625q-0.6875 0 -1.234375 0.53125q-0.53125 0.515625 -0.640625 1.46875zm8.698212 3.765625l0 -6.484375l0.90625 0l0.09375 1.1875l0.03125 0q0.34375 -0.625 0.8125 -0.984375q0.484375 -0.359375 1.03125 -0.359375q0.390625 0 0.703125 0.140625l-0.21875 0.953125q-0.15625 -0.046875 -0.296875 -0.078125q-0.125 -0.03125 -0.328125 -0.03125q-0.421875 0 -0.875 0.34375q-0.4375 0.328125 -0.765625 1.15625l0 4.15625l-1.09375 0zm7.116516 0.15625q-0.859375 0 -1.578125 -0.40625q-0.703125 -0.40625 -1.125 -1.15625q-0.40625 -0.765625 -0.40625 -1.8125q0 -1.078125 0.421875 -1.828125q0.421875 -0.765625 1.078125 -1.171875q0.671875 -0.421875 1.40625 -0.421875q1.25 0 1.921875 0.828125q0.671875 0.828125 0.671875 2.21875q0 0.171875 -0.015625 0.34375q0 0.15625 -0.03125 0.28125l-4.375 0q0.078125 1.015625 0.65625 1.640625q0.578125 0.609375 1.515625 0.609375q0.453125 0 0.84375 -0.140625q0.40625 -0.140625 0.765625 -0.359375l0.375 0.71875q-0.40625 0.265625 -0.9375 0.46875q-0.515625 0.1875 -1.1875 0.1875zm-2.046875 -3.921875l3.46875 0q0 -0.984375 -0.421875 -1.484375q-0.40625 -0.515625 -1.171875 -0.515625q-0.6875 0 -1.234375 0.53125q-0.53125 0.515625 -0.640625 1.46875zm8.595123 3.921875q-0.859375 0 -1.5625 -0.390625q-0.6875 -0.40625 -1.09375 -1.15625q-0.390625 -0.765625 -0.390625 -1.828125q0 -1.09375 0.4375 -1.859375q0.4375 -0.765625 1.140625 -1.15625q0.71875 -0.40625 1.546875 -0.40625q0.640625 0 1.09375 0.234375q0.46875 0.21875 0.796875 0.53125l-0.5625 0.71875q-0.28125 -0.25 -0.59375 -0.40625q-0.3125 -0.171875 -0.703125 -0.171875q-0.578125 0 -1.046875 0.3125q-0.453125 0.3125 -0.71875 0.890625q-0.25 0.5625 -0.25 1.3125q0 1.09375 0.546875 1.78125q0.5625 0.6875 1.453125 0.6875q0.453125 0 0.828125 -0.1875q0.390625 -0.203125 0.6875 -0.46875l0.484375 0.734375q-0.453125 0.390625 -0.984375 0.609375q-0.53125 0.21875 -1.109375 0.21875zm3.5151062 -0.15625l0 -9.484375l1.09375 0l0 2.578125l-0.046875 1.328125q0.46875 -0.4375 0.984375 -0.75q0.515625 -0.3125 1.1875 -0.3125q1.015625 0 1.484375 0.65625q0.484375 0.640625 0.484375 1.875l0 4.109375l-1.09375 0l0 -3.953125q0 -0.90625 -0.296875 -1.3125q-0.296875 -0.421875 -0.9375 -0.421875q-0.484375 0 -0.890625 0.25q-0.390625 0.25 -0.875 0.75l0 4.6875l-1.09375 0zm9.875488 0.15625q-0.859375 0 -1.578125 -0.40625q-0.703125 -0.40625 -1.125 -1.15625q-0.40625 -0.765625 -0.40625 -1.8125q0 -1.078125 0.421875 -1.828125q0.421875 -0.765625 1.078125 -1.171875q0.671875 -0.421875 1.40625 -0.421875q1.25 0 1.921875 0.828125q0.671875 0.828125 0.671875 2.21875q0 0.171875 -0.015625 0.34375q0 0.15625 -0.03125 0.28125l-4.375 0q0.078125 1.015625 0.65625 1.640625q0.578125 0.609375 1.515625 0.609375q0.453125 0 0.84375 -0.140625q0.40625 -0.140625 0.765625 -0.359375l0.375 0.71875q-0.40625 0.265625 -0.9375 0.46875q-0.515625 0.1875 -1.1875 0.1875zm-2.046875 -3.921875l3.46875 0q0 -0.984375 -0.421875 -1.484375q-0.40625 -0.515625 -1.171875 -0.515625q-0.6875 0 -1.234375 0.53125q-0.53125 0.515625 -0.640625 1.46875zm6.032593 3.765625l0 -6.484375l0.90625 0l0.09375 1.1875l0.03125 0q0.34375 -0.625 0.8125 -0.984375q0.484375 -0.359375 1.03125 -0.359375q0.390625 0 0.703125 0.140625l-0.21875 0.953125q-0.15625 -0.046875 -0.296875 -0.078125q-0.125 -0.03125 -0.328125 -0.03125q-0.421875 0 -0.875 0.34375q-0.4375 0.328125 -0.765625 1.15625l0 4.15625l-1.09375 0zm7.054016 0.15625q-0.859375 0 -1.5625 -0.390625q-0.6875 -0.40625 -1.09375 -1.15625q-0.390625 -0.765625 -0.390625 -1.828125q0 -1.09375 0.4375 -1.859375q0.4375 -0.765625 1.140625 -1.15625q0.71875 -0.40625 1.546875 -0.40625q0.640625 0 1.09375 0.234375q0.46875 0.21875 0.796875 0.53125l-0.5625 0.71875q-0.28125 -0.25 -0.59375 -0.40625q-0.3125 -0.171875 -0.703125 -0.171875q-0.578125 0 -1.046875 0.3125q-0.453125 0.3125 -0.71875 0.890625q-0.25 0.5625 -0.25 1.3125q0 1.09375 0.546875 1.78125q0.5625 0.6875 1.453125 0.6875q0.453125 0 0.828125 -0.1875q0.390625 -0.203125 0.6875 -0.46875l0.484375 0.734375q-0.453125 0.390625 -0.984375 0.609375q-0.53125 0.21875 -1.109375 0.21875zm3.5151062 -0.15625l0 -9.484375l1.09375 0l0 2.578125l-0.046875 1.328125q0.46875 -0.4375 0.984375 -0.75q0.515625 -0.3125 1.1875 -0.3125q1.015625 0 1.484375 0.65625q0.484375 0.640625 0.484375 1.875l0 4.109375l-1.09375 0l0 -3.953125q0 -0.90625 -0.296875 -1.3125q-0.296875 -0.421875 -0.9375 -0.421875q-0.484375 0 -0.890625 0.25q-0.390625 0.25 -0.875 0.75l0 4.6875l-1.09375 0zm9.875488 0.15625q-0.859375 0 -1.578125 -0.40625q-0.703125 -0.40625 -1.125 -1.15625q-0.40625 -0.765625 -0.40625 -1.8125q0 -1.078125 0.421875 -1.828125q0.421875 -0.765625 1.078125 -1.171875q0.671875 -0.421875 1.40625 -0.421875q1.25 0 1.921875 0.828125q0.671875 0.828125 0.671875 2.21875q0 0.171875 -0.015625 0.34375q0 0.15625 -0.03125 0.28125l-4.375 0q0.078125 1.015625 0.65625 1.640625q0.578125 0.609375 1.515625 0.609375q0.453125 0 0.84375 -0.140625q0.40625 -0.140625 0.765625 -0.359375l0.375 0.71875q-0.40625 0.265625 -0.9375 0.46875q-0.515625 0.1875 -1.1875 0.1875zm-2.046875 -3.921875l3.46875 0q0 -0.984375 -0.421875 -1.484375q-0.40625 -0.515625 -1.171875 -0.515625q-0.6875 0 -1.234375 0.53125q-0.53125 0.515625 -0.640625 1.46875z" fill-rule="nonzero"/><path fill="#000000" fill-opacity="0.0" d="m502.98447 219.101l0 -43.696426l-118.80313 0l0 -43.705154" fill-rule="evenodd"/><path stroke="#000000" stroke-width="1.0" stroke-linejoin="round" stroke-linecap="butt" d="m502.98447 215.31099l0 -39.906418l-118.80316 0l0 -39.91516" fill-rule="evenodd"/><path stroke="#000000" stroke-width="1.0" stroke-linecap="butt" d="m504.62946 215.31099l0 3.2899933l-3.2900085 0l0 -3.2899933l3.2900085 0z" fill-rule="nonzero"/><path stroke="#000000" stroke-width="1.0" stroke-linecap="butt" d="m382.53632 135.48941l0 -3.2899933l3.289978 0l0 3.2899933l-3.289978 0z" fill-rule="nonzero"/><path fill="#000000" fill-opacity="0.0" d="m196.58813 28.946922l612.78925 0l0 501.4515l-612.78925 0z" fill-rule="evenodd"/><path stroke="#595959" stroke-width="1.0" stroke-linejoin="round" stroke-linecap="butt" d="m196.58813 28.946922l612.78925 0l0 501.4515l-612.78925 0z" fill-rule="evenodd"/><path fill="#000000" fill-opacity="0.0" d="m240.21837 196.42621l525.53564 0l0 319.25867l-525.53564 0z" fill-rule="evenodd"/><path stroke="#595959" stroke-width="1.0" stroke-linejoin="round" stroke-linecap="butt" d="m240.21837 196.42621l525.53564 0l0 319.25867l-525.53564 0z" fill-rule="evenodd"/><path fill="#000000" fill-opacity="0.0" d="m268.82684 368.3956l481.0252 0l0 136.4083l-481.0252 0z" fill-rule="evenodd"/><path stroke="#595959" stroke-width="1.0" stroke-linejoin="round" stroke-linecap="butt" d="m268.82684 368.3956l481.0252 0l0 136.4083l-481.0252 0z" fill-rule="evenodd"/><path fill="#ffffff" d="m150.59811 9.585768l95.84337 0l0 42.003395l-95.84337 0z" fill-rule="evenodd"/><path stroke="#000000" stroke-width="1.0" stroke-linejoin="round" stroke-linecap="butt" d="m150.59811 9.585768l95.84337 0l0 42.003395l-95.84337 0z" fill-rule="evenodd"/><path fill="#000000" d="m161.33249 36.505764l0 -13.359373l1.765625 0l0 13.359373l-1.765625 0zm4.870804 0l0 -13.359373l1.8125 0l7.015625 10.484373l0 -10.484373l1.6875 0l0 13.359373l-1.8125 0l-7.015625 -10.499998l0 10.499998l-1.6875 0zm13.519821 0l0 -13.359373l5.921875 0q1.78125 0 2.703125 0.359375q0.9375 0.359375 1.484375 1.28125q0.5625 0.90625 0.5625 2.015625q0 1.40625 -0.921875 2.390625q-0.921875 0.96875 -2.84375 1.234375q0.703125 0.34375 1.078125 0.671875q0.765625 0.703125 1.453125 1.7656231l2.328125 3.640625l-2.21875 0l-1.765625 -2.78125q-0.78125 -1.203125 -1.28125 -1.8281231q-0.5 -0.640625 -0.90625 -0.890625q-0.390625 -0.265625 -0.796875 -0.359375q-0.296875 -0.078125 -0.984375 -0.078125l-2.046875 0l0 5.937498l-1.765625 0zm1.765625 -7.453123l3.796875 0q1.21875 0 1.890625 -0.25q0.6875 -0.265625 1.046875 -0.8125q0.359375 -0.546875 0.359375 -1.1875q0 -0.953125 -0.6875 -1.5625q-0.6875 -0.609375 -2.1875 -0.609375l-4.21875 0l0 4.421875zm11.972946 7.453123l0 -13.359373l1.765625 0l0 13.359373l-1.765625 0zm3.4176788 0l5.125 -13.359373l1.90625 0l5.46875 13.359373l-2.015625 0l-1.546875 -4.046875l-5.59375 0l-1.46875 4.046875l-1.875 0zm3.859375 -5.484373l4.53125 0l-1.40625 -3.703125q-0.625 -1.6875 -0.9375 -2.765625q-0.265625 1.28125 -0.71875 2.546875l-1.46875 3.921875z" fill-rule="nonzero"/><path fill="#ffffff" d="m207.74663 173.9194l80.755905 0l0 42.015747l-80.755905 0z" fill-rule="evenodd"/><path stroke="#000000" stroke-width="1.0" stroke-linejoin="round" stroke-linecap="butt" d="m207.74663 173.9194l80.755905 0l0 42.015747l-80.755905 0z" fill-rule="evenodd"/><path fill="#000000" d="m218.106 200.8394l0 -13.359375l1.78125 0l0 11.78125l6.5625 0l0 1.578125l-8.34375 0zm9.922592 -6.5q0 -3.328125 1.78125 -5.203125q1.78125 -1.890625 4.609375 -1.890625q1.84375 0 3.328125 0.890625q1.484375 0.875 2.265625 2.46875q0.78125 1.578125 0.78125 3.578125q0 2.03125 -0.828125 3.640625q-0.8125 1.59375 -2.3125 2.421875q-1.5 0.828125 -3.25 0.828125q-1.875 0 -3.359375 -0.90625q-1.484375 -0.921875 -2.25 -2.5q-0.765625 -1.578125 -0.765625 -3.328125zm1.8125 0.015625q0 2.421875 1.296875 3.8125q1.296875 1.390625 3.265625 1.390625q2.0 0 3.28125 -1.40625q1.28125 -1.40625 1.28125 -3.984375q0 -1.625 -0.546875 -2.84375q-0.546875 -1.21875 -1.609375 -1.875q-1.0625 -0.671875 -2.375 -0.671875q-1.890625 0 -3.25 1.296875q-1.34375 1.28125 -1.34375 4.28125zm13.152054 6.484375l0 -13.359375l1.78125 0l0 6.625l6.625 -6.625l2.390625 0l-5.59375 5.421875l5.84375 7.9375l-2.328125 0l-4.765625 -6.765625l-2.171875 2.140625l0 4.625l-1.78125 0zm12.818573 0l0 -13.359375l1.7656097 0l0 13.359375l-1.7656097 0z" fill-rule="nonzero"/><path fill="#ffffff" d="m246.44095 345.70602l115.811005 0l0 42.015747l-115.811005 0z" fill-rule="evenodd"/><path stroke="#000000" stroke-width="1.0" stroke-linejoin="round" stroke-linecap="butt" d="m246.44095 345.70602l115.811005 0l0 42.015747l-115.811005 0z" fill-rule="evenodd"/><path fill="#000000" d="m256.9097 372.62604l0 -13.359375l9.65625 0l0 1.578125l-7.875 0l0 4.09375l7.375 0l0 1.5625l-7.375 0l0 4.546875l8.1875 0l0 1.578125l-9.96875 0zm11.818573 -4.296875l1.65625 -0.140625q0.125 1.0 0.546875 1.640625q0.4375 0.640625 1.34375 1.046875q0.921875 0.390625 2.0625 0.390625q1.0 0 1.78125 -0.296875q0.78125 -0.296875 1.15625 -0.8125q0.375 -0.53125 0.375 -1.15625q0 -0.625 -0.375 -1.09375q-0.359375 -0.46875 -1.1875 -0.796875q-0.546875 -0.203125 -2.390625 -0.640625q-1.828125 -0.453125 -2.5625 -0.84375q-0.96875 -0.5 -1.4375 -1.234375q-0.46875 -0.75 -0.46875 -1.671875q0 -1.0 0.578125 -1.875q0.578125 -0.890625 1.671875 -1.34375q1.109375 -0.453125 2.453125 -0.453125q1.484375 0 2.609375 0.484375q1.140625 0.46875 1.75 1.40625q0.609375 0.921875 0.65625 2.09375l-1.6875 0.125q-0.140625 -1.265625 -0.9375 -1.90625q-0.78125 -0.65625 -2.3125 -0.65625q-1.609375 0 -2.34375 0.59375q-0.734375 0.59375 -0.734375 1.421875q0 0.71875 0.53125 1.171875q0.5 0.46875 2.65625 0.96875q2.15625 0.484375 2.953125 0.84375q1.171875 0.53125 1.71875 1.359375q0.5625 0.828125 0.5625 1.90625q0 1.0625 -0.609375 2.015625q-0.609375 0.9375 -1.75 1.46875q-1.140625 0.515625 -2.578125 0.515625q-1.8125 0 -3.046875 -0.53125q-1.21875 -0.53125 -1.921875 -1.59375q-0.6875 -1.0625 -0.71875 -2.40625zm23.162323 2.859375q1.234375 0.859375 2.265625 1.25l-0.515625 1.21875q-1.4375 -0.515625 -2.875 -1.625q-1.484375 0.828125 -3.28125 0.828125q-1.8125 0 -3.296875 -0.875q-1.46875 -0.875 -2.265625 -2.453125q-0.796875 -1.59375 -0.796875 -3.578125q0 -1.984375 0.796875 -3.59375q0.8125 -1.625 2.28125 -2.46875q1.484375 -0.859375 3.328125 -0.859375q1.84375 0 3.328125 0.890625q1.484375 0.875 2.265625 2.453125q0.78125 1.578125 0.78125 3.5625q0 1.65625 -0.5 2.96875q-0.5 1.3125 -1.515625 2.28125zm-3.890625 -2.25q1.53125 0.421875 2.515625 1.28125q1.5625 -1.421875 1.5625 -4.28125q0 -1.625 -0.546875 -2.828125q-0.546875 -1.21875 -1.609375 -1.875q-1.0625 -0.671875 -2.390625 -0.671875q-1.96875 0 -3.28125 1.359375q-1.296875 1.34375 -1.296875 4.03125q0 2.59375 1.28125 4.0q1.296875 1.390625 3.296875 1.390625q0.953125 0 1.78125 -0.359375q-0.828125 -0.53125 -1.75 -0.765625l0.4375 -1.28125zm17.042664 -9.671875l1.765625 0l0 7.71875q0 2.015625 -0.453125 3.203125q-0.453125 1.1875 -1.640625 1.9375q-1.1875 0.734375 -3.125 0.734375q-1.875 0 -3.078125 -0.640625q-1.1875 -0.65625 -1.703125 -1.875q-0.5 -1.234375 -0.5 -3.359375l0 -7.71875l1.765625 0l0 7.71875q0 1.734375 0.3125 2.5625q0.328125 0.8125 1.109375 1.265625q0.796875 0.453125 1.9375 0.453125q1.953125 0 2.78125 -0.890625q0.828125 -0.890625 0.828125 -3.390625l0 -7.71875zm5.0042114 13.359375l0 -13.359375l1.765625 0l0 13.359375l-1.765625 0zm4.2926636 -4.296875l1.65625 -0.140625q0.125 1.0 0.546875 1.640625q0.4375 0.640625 1.34375 1.046875q0.921875 0.390625 2.0625 0.390625q1.0 0 1.78125 -0.296875q0.78125 -0.296875 1.15625 -0.8125q0.375 -0.53125 0.375 -1.15625q0 -0.625 -0.375 -1.09375q-0.359375 -0.46875 -1.1875 -0.796875q-0.546875 -0.203125 -2.390625 -0.640625q-1.828125 -0.453125 -2.5625 -0.84375q-0.96875 -0.5 -1.4375 -1.234375q-0.46875 -0.75 -0.46875 -1.671875q0 -1.0 0.578125 -1.875q0.578125 -0.890625 1.671875 -1.34375q1.109375 -0.453125 2.453125 -0.453125q1.484375 0 2.609375 0.484375q1.140625 0.46875 1.75 1.40625q0.609375 0.921875 0.65625 2.09375l-1.6875 0.125q-0.140625 -1.265625 -0.9375 -1.90625q-0.78125 -0.65625 -2.3125 -0.65625q-1.609375 0 -2.34375 0.59375q-0.734375 0.59375 -0.734375 1.421875q0 0.71875 0.53125 1.171875q0.5 0.46875 2.65625 0.96875q2.15625 0.484375 2.953125 0.84375q1.171875 0.53125 1.71875 1.359375q0.5625 0.828125 0.5625 1.90625q0 1.0625 -0.609375 2.015625q-0.609375 0.9375 -1.75 1.46875q-1.140625 0.515625 -2.578125 0.515625q-1.8125 0 -3.046875 -0.53125q-1.21875 -0.53125 -1.921875 -1.59375q-0.6875 -1.0625 -0.71875 -2.40625zm12.443573 0l1.65625 -0.140625q0.125 1.0 0.546875 1.640625q0.4375 0.640625 1.34375 1.046875q0.921875 0.390625 2.0625 0.390625q1.0 0 1.78125 -0.296875q0.78125 -0.296875 1.15625 -0.8125q0.375 -0.53125 0.375 -1.15625q0 -0.625 -0.375 -1.09375q-0.359375 -0.46875 -1.1875 -0.796875q-0.546875 -0.203125 -2.390625 -0.640625q-1.828125 -0.453125 -2.5625 -0.84375q-0.96875 -0.5 -1.4375 -1.234375q-0.46875 -0.75 -0.46875 -1.671875q0 -1.0 0.578125 -1.875q0.578125 -0.890625 1.671875 -1.34375q1.109375 -0.453125 2.453125 -0.453125q1.484375 0 2.609375 0.484375q1.140625 0.46875 1.75 1.40625q0.609375 0.921875 0.65625 2.09375l-1.6875 0.125q-0.140625 -1.265625 -0.9375 -1.90625q-0.78125 -0.65625 -2.3125 -0.65625q-1.609375 0 -2.34375 0.59375q-0.734375 0.59375 -0.734375 1.421875q0 0.71875 0.53125 1.171875q0.5 0.46875 2.65625 0.96875q2.15625 0.484375 2.953125 0.84375q1.171875 0.53125 1.71875 1.359375q0.5625 0.828125 0.5625 1.90625q0 1.0625 -0.609375 2.015625q-0.609375 0.9375 -1.75 1.46875q-1.140625 0.515625 -2.578125 0.515625q-1.8125 0 -3.046875 -0.53125q-1.21875 -0.53125 -1.921875 -1.59375q-0.6875 -1.0625 -0.71875 -2.40625zm13.068573 4.296875l0 -13.359375l9.65625 0l0 1.578125l-7.875 0l0 4.09375l7.375 0l0 1.5625l-7.375 0l0 4.546875l8.1875 0l0 1.578125l-9.96875 0z" fill-rule="nonzero"/></g></svg>