<svg width="960" height="600" version="1.1" xmlns="http://www.w3.org/2000/svg"><g></g><g transform="translate(480,300)scale(1.107011079788208,1.107011079788208)"><text text-anchor="middle" transform="translate(-75,-32)rotate(-26.000000034001005)skewX(3.1805546498063074e-15)scale(1.0000000099533612,1.0000000099533612)" style="font-size: 100px; font-family: Impact; fill: rgb(57, 59, 121);">word</text><text text-anchor="middle" transform="translate(207,144)rotate(-26.000000034001005)skewX(3.1805546498063074e-15)scale(1.0000000099533612,1.0000000099533612)" style="font-size: 79px; font-family: Impact; fill: rgb(82, 84, 163);">words</text><text text-anchor="middle" transform="translate(-28,116)rotate(-26.000000034001005)skewX(3.1805546498063074e-15)scale(1.0000000099533612,1.0000000099533612)" style="font-size: 70px; font-family: Impact; fill: rgb(107, 110, 207);">sprite</text><text text-anchor="middle" transform="translate(91,109)rotate(-26.000000034001005)skewX(3.1805546498063074e-15)scale(1.0000000099533612,1.0000000099533612)" style="font-size: 50px; font-family: Impact; fill: rgb(156, 158, 222);">placed</text><text text-anchor="middle" transform="translate(-39,-142)rotate(-26.000000034001005)skewX(3.1805546498063074e-15)scale(1.0000000099533612,1.0000000099533612)" style="font-size: 40px; font-family: Impact; fill: rgb(99, 121, 57);">layout</text><text text-anchor="middle" transform="translate(104,-121)rotate(-26.000000034001005)skewX(3.1805546498063074e-15)scale(1.0000000099533612,1.0000000099533612)" style="font-size: 40px; font-family: Impact; fill: rgb(140, 162, 82);">algorithm</text><text text-anchor="middle" transform="translate(120,19)rotate(-26.000000034001005)skewX(3.1805546498063074e-15)scale(1.0000000099533612,1.0000000099533612)" style="font-size: 40px; font-family: Impact; fill: rgb(181, 207, 107);">area</text><text text-anchor="middle" transform="translate(-216,-120)rotate(-26.000000034001005)skewX(3.1805546498063074e-15)scale(1.0000000099533612,1.0000000099533612)" style="font-size: 30px; font-family: Impact; fill: rgb(206, 219, 156);">without</text><text text-anchor="middle" transform="translate(31,-135)rotate(-26.000000034001005)skewX(3.1805546498063074e-15)scale(1.0000000099533612,1.0000000099533612)" style="font-size: 30px; font-family: Impact; fill: rgb(140, 109, 49);">step</text><text text-anchor="middle" transform="translate(26,25)rotate(-26.000000034001005)skewX(3.1805546498063074e-15)scale(1.0000000099533612,1.0000000099533612)" style="font-size: 30px; font-family: Impact; fill: rgb(189, 158, 57);">bounding</text><text text-anchor="middle" transform="translate(-28,151)rotate(-26.000000034001005)skewX(3.1805546498063074e-15)scale(1.0000000099533612,1.0000000099533612)" style="font-size: 30px; font-family: Impact; fill: rgb(231, 186, 82);">retrieve</text><text text-anchor="middle" transform="translate(-108,92)rotate(-26.000000034001005)skewX(3.1805546498063074e-15)scale(1.0000000099533612,1.0000000099533612)" style="font-size: 30px; font-family: Impact; fill: rgb(231, 203, 148);">operation</text><text text-anchor="middle" transform="translate(39,168)rotate(-26.000000034001005)skewX(3.1805546498063074e-15)scale(1.0000000099533612,1.0000000099533612)" style="font-size: 30px; font-family: Impact; fill: rgb(132, 60, 57);">collision</text><text text-anchor="middle" transform="translate(118,-95)rotate(-26.000000034001005)skewX(3.1805546498063074e-15)scale(1.0000000099533612,1.0000000099533612)" style="font-size: 30px; font-family: Impact; fill: rgb(173, 73, 74);">candidate</text><text text-anchor="middle" transform="translate(118,-16)rotate(-26.000000034001005)skewX(3.1805546498063074e-15)scale(1.0000000099533612,1.0000000099533612)" style="font-size: 20px; font-family: Impact; fill: rgb(214, 97, 107);">32</text><text text-anchor="middle" transform="translate(-39,-27)rotate(-26.000000034001005)skewX(3.1805546498063074e-15)scale(1.0000000099533612,1.0000000099533612)" style="font-size: 20px; font-family: Impact; fill: rgb(231, 150, 156);">placement</text><text text-anchor="middle" transform="translate(-87,-160)rotate(-26.000000034001005)skewX(3.1805546498063074e-15)scale(1.0000000099533612,1.0000000099533612)" style="font-size: 20px; font-family: Impact; fill: rgb(123, 65, 115);">time</text><text text-anchor="middle" transform="translate(-39,23)rotate(-26.000000034001005)skewX(3.1805546498063074e-15)scale(1.0000000099533612,1.0000000099533612)" style="font-size: 20px; font-family: Impact; fill: rgb(165, 81, 148);">possible</text><text text-anchor="middle" transform="translate(86,-152)rotate(-26.000000034001005)skewX(3.1805546498063074e-15)scale(1.0000000099533612,1.0000000099533612)" style="font-size: 20px; font-family: Impact; fill: rgb(206, 109, 189);">even</text><text text-anchor="middle" transform="translate(86,61)rotate(-26.000000034001005)skewX(3.1805546498063074e-15)scale(1.0000000099533612,1.0000000099533612)" style="font-size: 20px; font-family: Impact; fill: rgb(222, 158, 214);">simple</text><text text-anchor="middle" transform="translate(223,-10)rotate(-26.000000034001005)skewX(3.1805546498063074e-15)scale(1.0000000099533612,1.0000000099533612)" style="font-size: 20px; font-family: Impact; fill: rgb(57, 59, 121);">starting</text><text text-anchor="middle" transform="translate(100,-41)rotate(-26.000000034001005)skewX(3.1805546498063074e-15)scale(1.0000000099533612,1.0000000099533612)" style="font-size: 20px; font-family: Impact; fill: rgb(82, 84, 163);">previously</text><text text-anchor="middle" transform="translate(39,-31)rotate(-26.000000034001005)skewX(3.1805546498063074e-15)scale(1.0000000099533612,1.0000000099533612)" style="font-size: 20px; font-family: Impact; fill: rgb(107, 110, 207);">move</text><text text-anchor="middle" transform="translate(-216,-58)rotate(-26.000000034001005)skewX(3.1805546498063074e-15)scale(1.0000000099533612,1.0000000099533612)" style="font-size: 20px; font-family: Impact; fill: rgb(156, 158, 222);">perform</text><text text-anchor="middle" transform="translate(115,-70)rotate(-26.000000034001005)skewX(3.1805546498063074e-15)scale(1.0000000099533612,1.0000000099533612)" style="font-size: 20px; font-family: Impact; fill: rgb(99, 121, 57);">hierarchical</text><text text-anchor="middle" transform="translate(-177,149)rotate(-26.000000034001005)skewX(3.1805546498063074e-15)scale(1.0000000099533612,1.0000000099533612)" style="font-size: 20px; font-family: Impact; fill: rgb(140, 162, 82);">draw</text><text text-anchor="middle" transform="translate(-125,17)rotate(-26.000000034001005)skewX(3.1805546498063074e-15)scale(1.0000000099533612,1.0000000099533612)" style="font-size: 20px; font-family: Impact; fill: rgb(181, 207, 107);">pixel</text><text text-anchor="middle" transform="translate(-70,9)rotate(-26.000000034001005)skewX(3.1805546498063074e-15)scale(1.0000000099533612,1.0000000099533612)" style="font-size: 20px; font-family: Impact; fill: rgb(206, 219, 156);">data</text><text text-anchor="middle" transform="translate(162,100)rotate(-26.000000034001005)skewX(3.1805546498063074e-15)scale(1.0000000099533612,1.0000000099533612)" style="font-size: 20px; font-family: Impact; fill: rgb(140, 109, 49);">separately</text><text text-anchor="middle" transform="translate(-121,-88)rotate(-26.000000034001005)skewX(3.1805546498063074e-15)scale(1.0000000099533612,1.0000000099533612)" style="font-size: 20px; font-family: Impact; fill: rgb(189, 158, 57);">expensive</text><text text-anchor="middle" transform="translate(78,175)rotate(-26.000000034001005)skewX(3.1805546498063074e-15)scale(1.0000000099533612,1.0000000099533612)" style="font-size: 20px; font-family: Impact; fill: rgb(231, 186, 82);">pixels</text><text text-anchor="middle" transform="translate(-135,-143)rotate(-26.000000034001005)skewX(3.1805546498063074e-15)scale(1.0000000099533612,1.0000000099533612)" style="font-size: 20px; font-family: Impact; fill: rgb(231, 203, 148);">masks</text><text text-anchor="middle" transform="translate(282,132)rotate(-26.000000034001005)skewX(3.1805546498063074e-15)scale(1.0000000099533612,1.0000000099533612)" style="font-size: 20px; font-family: Impact; fill: rgb(132, 60, 57);">implementation</text><text text-anchor="middle" transform="translate(163,-47)rotate(-26.000000034001005)skewX(3.1805546498063074e-15)scale(1.0000000099533612,1.0000000099533612)" style="font-size: 20px; font-family: Impact; fill: rgb(173, 73, 74);">detection</text><text text-anchor="middle" transform="translate(-99,53)rotate(-26.000000034001005)skewX(3.1805546498063074e-15)scale(1.0000000099533612,1.0000000099533612)" style="font-size: 20px; font-family: Impact; fill: rgb(214, 97, 107);">larger</text><text text-anchor="middle" transform="translate(33,-54)rotate(-26.000000034001005)skewX(3.1805546498063074e-15)scale(1.0000000099533612,1.0000000099533612)" style="font-size: 20px; font-family: Impact; fill: rgb(231, 150, 156);">whole</text><text text-anchor="middle" transform="translate(187,-84)rotate(-26.000000034001005)skewX(3.1805546498063074e-15)scale(1.0000000099533612,1.0000000099533612)" style="font-size: 20px; font-family: Impact; fill: rgb(123, 65, 115);">comparing</text><text text-anchor="middle" transform="translate(53,36)rotate(-26.000000034001005)skewX(3.1805546498063074e-15)scale(1.0000000099533612,1.0000000099533612)" style="font-size: 20px; font-family: Impact; fill: rgb(165, 81, 148);">box</text><text text-anchor="middle" transform="translate(-21,169)rotate(-26.000000034001005)skewX(3.1805546498063074e-15)scale(1.0000000099533612,1.0000000099533612)" style="font-size: 20px; font-family: Impact; fill: rgb(206, 109, 189);">large</text><text text-anchor="middle" transform="translate(-31,-9)rotate(-26.000000034001005)skewX(3.1805546498063074e-15)scale(1.0000000099533612,1.0000000099533612)" style="font-size: 20px; font-family: Impact; fill: rgb(222, 158, 214);">think</text><text text-anchor="middle" transform="translate(-116,37)rotate(-26.000000034001005)skewX(3.1805546498063074e-15)scale(1.0000000099533612,1.0000000099533612)" style="font-size: 20px; font-family: Impact; fill: rgb(57, 59, 121);">version</text><text text-anchor="middle" transform="translate(41,-167)rotate(-26.000000034001005)skewX(3.1805546498063074e-15)scale(1.0000000099533612,1.0000000099533612)" style="font-size: 20px; font-family: Impact; fill: rgb(82, 84, 163);">single</text><text text-anchor="middle" transform="translate(205,-47)rotate(-26.000000034001005)skewX(3.1805546498063074e-15)scale(1.0000000099533612,1.0000000099533612)" style="font-size: 20px; font-family: Impact; fill: rgb(107, 110, 207);">tree</text><text text-anchor="middle" transform="translate(-182,10)rotate(-26.000000034001005)skewX(3.1805546498063074e-15)scale(1.0000000099533612,1.0000000099533612)" style="font-size: 10px; font-family: Impact; fill: rgb(156, 158, 222);">Cloud</text><text text-anchor="middle" transform="translate(184,67)rotate(-26.000000034001005)skewX(3.1805546498063074e-15)scale(1.0000000099533612,1.0000000099533612)" style="font-size: 10px; font-family: Impact; fill: rgb(99, 121, 57);">Generator</text><text text-anchor="middle" transform="translate(207,14)rotate(-26.000000034001005)skewX(3.1805546498063074e-15)scale(1.0000000099533612,1.0000000099533612)" style="font-size: 10px; font-family: Impact; fill: rgb(140, 162, 82);">Works</text><text text-anchor="middle" transform="translate(-239,-70)rotate(-26.000000034001005)skewX(3.1805546498063074e-15)scale(1.0000000099533612,1.0000000099533612)" style="font-size: 10px; font-family: Impact; fill: rgb(181, 207, 107);">positioning</text><text text-anchor="middle" transform="translate(30,-12)rotate(-26.000000034001005)skewX(3.1805546498063074e-15)scale(1.0000000099533612,1.0000000099533612)" style="font-size: 10px; font-family: Impact; fill: rgb(206, 219, 156);">overlap</text><text text-anchor="middle" transform="translate(-162,-100)rotate(-26.000000034001005)skewX(3.1805546498063074e-15)scale(1.0000000099533612,1.0000000099533612)" style="font-size: 10px; font-family: Impact; fill: rgb(140, 109, 49);">available</text><text text-anchor="middle" transform="translate(-210,6)rotate(-26.000000034001005)skewX(3.1805546498063074e-15)scale(1.0000000099533612,1.0000000099533612)" style="font-size: 10px; font-family: Impact; fill: rgb(189, 158, 57);">GitHub</text><text text-anchor="middle" transform="translate(215,64)rotate(-26.000000034001005)skewX(3.1805546498063074e-15)scale(1.0000000099533612,1.0000000099533612)" style="font-size: 10px; font-family: Impact; fill: rgb(231, 186, 82);">open</text><text text-anchor="middle" transform="translate(-178,71)rotate(-26.000000034001005)skewX(3.1805546498063074e-15)scale(1.0000000099533612,1.0000000099533612)" style="font-size: 10px; font-family: Impact; fill: rgb(231, 203, 148);">source</text><text text-anchor="middle" transform="translate(55,48)rotate(-26.000000034001005)skewX(3.1805546498063074e-15)scale(1.0000000099533612,1.0000000099533612)" style="font-size: 10px; font-family: Impact; fill: rgb(132, 60, 57);">license</text><text text-anchor="middle" transform="translate(92,184)rotate(-26.000000034001005)skewX(3.1805546498063074e-15)scale(1.0000000099533612,1.0000000099533612)" style="font-size: 10px; font-family: Impact; fill: rgb(173, 73, 74);">d3cloud</text><text text-anchor="middle" transform="translate(189,-17)rotate(-26.000000034001005)skewX(3.1805546498063074e-15)scale(1.0000000099533612,1.0000000099533612)" style="font-size: 10px; font-family: Impact; fill: rgb(214, 97, 107);">Note</text><text text-anchor="middle" transform="translate(210,-118)rotate(-26.000000034001005)skewX(3.1805546498063074e-15)scale(1.0000000099533612,1.0000000099533612)" style="font-size: 10px; font-family: Impact; fill: rgb(231, 150, 156);">code</text><text text-anchor="middle" transform="translate(28,192)rotate(-26.000000034001005)skewX(3.1805546498063074e-15)scale(1.0000000099533612,1.0000000099533612)" style="font-size: 10px; font-family: Impact; fill: rgb(123, 65, 115);">converting</text><text text-anchor="middle" transform="translate(24,38)rotate(-26.000000034001005)skewX(3.1805546498063074e-15)scale(1.0000000099533612,1.0000000099533612)" style="font-size: 10px; font-family: Impact; fill: rgb(165, 81, 148);">text</text><text text-anchor="middle" transform="translate(-114,-114)rotate(-26.000000034001005)skewX(3.1805546498063074e-15)scale(1.0000000099533612,1.0000000099533612)" style="font-size: 10px; font-family: Impact; fill: rgb(206, 109, 189);">rendering</text><text text-anchor="middle" transform="translate(-100,-7)rotate(-26.000000034001005)skewX(3.1805546498063074e-15)scale(1.0000000099533612,1.0000000099533612)" style="font-size: 10px; font-family: Impact; fill: rgb(222, 158, 214);">final</text><text text-anchor="middle" transform="translate(94,-26)rotate(-26.000000034001005)skewX(3.1805546498063074e-15)scale(1.0000000099533612,1.0000000099533612)" style="font-size: 10px; font-family: Impact; fill: rgb(57, 59, 121);">output</text><text text-anchor="middle" transform="translate(-180,101)rotate(-26.000000034001005)skewX(3.1805546498063074e-15)scale(1.0000000099533612,1.0000000099533612)" style="font-size: 10px; font-family: Impact; fill: rgb(82, 84, 163);">requires</text><text text-anchor="middle" transform="translate(-136,146)rotate(-26.000000034001005)skewX(3.1805546498063074e-15)scale(1.0000000099533612,1.0000000099533612)" style="font-size: 10px; font-family: Impact; fill: rgb(107, 110, 207);">additional</text><text text-anchor="middle" transform="translate(-142,-125)rotate(-26.000000034001005)skewX(3.1805546498063074e-15)scale(1.0000000099533612,1.0000000099533612)" style="font-size: 10px; font-family: Impact; fill: rgb(156, 158, 222);">development</text><text text-anchor="middle" transform="translate(-222,111)rotate(-26.000000034001005)skewX(3.1805546498063074e-15)scale(1.0000000099533612,1.0000000099533612)" style="font-size: 10px; font-family: Impact; fill: rgb(99, 121, 57);">quite</text><text text-anchor="middle" transform="translate(-166,23)rotate(-26.000000034001005)skewX(3.1805546498063074e-15)scale(1.0000000099533612,1.0000000099533612)" style="font-size: 10px; font-family: Impact; fill: rgb(140, 162, 82);">slow</text><text text-anchor="middle" transform="translate(-207,-8)rotate(-26.000000034001005)skewX(3.1805546498063074e-15)scale(1.0000000099533612,1.0000000099533612)" style="font-size: 10px; font-family: Impact; fill: rgb(181, 207, 107);">hundred</text><text text-anchor="middle" transform="translate(-210,152)rotate(-26.000000034001005)skewX(3.1805546498063074e-15)scale(1.0000000099533612,1.0000000099533612)" style="font-size: 10px; font-family: Impact; fill: rgb(206, 219, 156);">run</text><text text-anchor="middle" transform="translate(146,22)rotate(-26.000000034001005)skewX(3.1805546498063074e-15)scale(1.0000000099533612,1.0000000099533612)" style="font-size: 10px; font-family: Impact; fill: rgb(140, 109, 49);">asynchronously</text><text text-anchor="middle" transform="translate(161,29)rotate(-26.000000034001005)skewX(3.1805546498063074e-15)scale(1.0000000099533612,1.0000000099533612)" style="font-size: 10px; font-family: Impact; fill: rgb(189, 158, 57);">configurable</text><text text-anchor="middle" transform="translate(-229,-26)rotate(-26.000000034001005)skewX(3.1805546498063074e-15)scale(1.0000000099533612,1.0000000099533612)" style="font-size: 10px; font-family: Impact; fill: rgb(231, 186, 82);">size</text><text text-anchor="middle" transform="translate(-137,132)rotate(-26.000000034001005)skewX(3.1805546498063074e-15)scale(1.0000000099533612,1.0000000099533612)" style="font-size: 10px; font-family: Impact; fill: rgb(231, 203, 148);">makes</text><text text-anchor="middle" transform="translate(178,-111)rotate(-26.000000034001005)skewX(3.1805546498063074e-15)scale(1.0000000099533612,1.0000000099533612)" style="font-size: 10px; font-family: Impact; fill: rgb(132, 60, 57);">animate</text><text text-anchor="middle" transform="translate(167,-28)rotate(-26.000000034001005)skewX(3.1805546498063074e-15)scale(1.0000000099533612,1.0000000099533612)" style="font-size: 10px; font-family: Impact; fill: rgb(173, 73, 74);">stuttering</text><text text-anchor="middle" transform="translate(-142,-163)rotate(-26.000000034001005)skewX(3.1805546498063074e-15)scale(1.0000000099533612,1.0000000099533612)" style="font-size: 10px; font-family: Impact; fill: rgb(214, 97, 107);">recommended</text><text text-anchor="middle" transform="translate(-214,92)rotate(-26.000000034001005)skewX(3.1805546498063074e-15)scale(1.0000000099533612,1.0000000099533612)" style="font-size: 10px; font-family: Impact; fill: rgb(231, 150, 156);">always</text><text text-anchor="middle" transform="translate(236,-59)rotate(-26.000000034001005)skewX(3.1805546498063074e-15)scale(1.0000000099533612,1.0000000099533612)" style="font-size: 10px; font-family: Impact; fill: rgb(123, 65, 115);">use</text><text text-anchor="middle" transform="translate(193,-149)rotate(-26.000000034001005)skewX(3.1805546498063074e-15)scale(1.0000000099533612,1.0000000099533612)" style="font-size: 10px; font-family: Impact; fill: rgb(165, 81, 148);">animations</text><text text-anchor="middle" transform="translate(-145,70)rotate(-26.000000034001005)skewX(3.1805546498063074e-15)scale(1.0000000099533612,1.0000000099533612)" style="font-size: 10px; font-family: Impact; fill: rgb(206, 109, 189);">prevents</text><text text-anchor="middle" transform="translate(198,-136)rotate(-26.000000034001005)skewX(3.1805546498063074e-15)scale(1.0000000099533612,1.0000000099533612)" style="font-size: 10px; font-family: Impact; fill: rgb(222, 158, 214);">browsers</text><text text-anchor="middle" transform="translate(293,141)rotate(-26.000000034001005)skewX(3.1805546498063074e-15)scale(1.0000000099533612,1.0000000099533612)" style="font-size: 10px; font-family: Impact; fill: rgb(57, 59, 121);">event</text><text text-anchor="middle" transform="translate(224,-136)rotate(-26.000000034001005)skewX(3.1805546498063074e-15)scale(1.0000000099533612,1.0000000099533612)" style="font-size: 10px; font-family: Impact; fill: rgb(82, 84, 163);">loop</text><text text-anchor="middle" transform="translate(-166,39)rotate(-26.000000034001005)skewX(3.1805546498063074e-15)scale(1.0000000099533612,1.0000000099533612)" style="font-size: 10px; font-family: Impact; fill: rgb(107, 110, 207);">blocking</text><text text-anchor="middle" transform="translate(-177,57)rotate(-26.000000034001005)skewX(3.1805546498063074e-15)scale(1.0000000099533612,1.0000000099533612)" style="font-size: 10px; font-family: Impact; fill: rgb(156, 158, 222);">placing</text><text text-anchor="middle" transform="translate(-185,-165)rotate(-26.000000034001005)skewX(3.1805546498063074e-15)scale(1.0000000099533612,1.0000000099533612)" style="font-size: 10px; font-family: Impact; fill: rgb(99, 121, 57);">incredibly</text><text text-anchor="middle" transform="translate(169,39)rotate(-26.000000034001005)skewX(3.1805546498063074e-15)scale(1.0000000099533612,1.0000000099533612)" style="font-size: 10px; font-family: Impact; fill: rgb(140, 162, 82);">important</text><text text-anchor="middle" transform="translate(229,-88)rotate(-26.000000034001005)skewX(3.1805546498063074e-15)scale(1.0000000099533612,1.0000000099533612)" style="font-size: 10px; font-family: Impact; fill: rgb(181, 207, 107);">Attempt</text><text text-anchor="middle" transform="translate(19,-115)rotate(-26.000000034001005)skewX(3.1805546498063074e-15)scale(1.0000000099533612,1.0000000099533612)" style="font-size: 10px; font-family: Impact; fill: rgb(206, 219, 156);">place</text><text text-anchor="middle" transform="translate(6,-14)rotate(-26.000000034001005)skewX(3.1805546498063074e-15)scale(1.0000000099533612,1.0000000099533612)" style="font-size: 10px; font-family: Impact; fill: rgb(140, 109, 49);">point</text><text text-anchor="middle" transform="translate(104,132)rotate(-26.000000034001005)skewX(3.1805546498063074e-15)scale(1.0000000099533612,1.0000000099533612)" style="font-size: 10px; font-family: Impact; fill: rgb(189, 158, 57);">usually</text><text text-anchor="middle" transform="translate(8,8)rotate(-26.000000034001005)skewX(3.1805546498063074e-15)scale(1.0000000099533612,1.0000000099533612)" style="font-size: 10px; font-family: Impact; fill: rgb(231, 186, 82);">near</text><text text-anchor="middle" transform="translate(-198,39)rotate(-26.000000034001005)skewX(3.1805546498063074e-15)scale(1.0000000099533612,1.0000000099533612)" style="font-size: 10px; font-family: Impact; fill: rgb(231, 203, 148);">middle</text><text text-anchor="middle" transform="translate(245,165)rotate(-26.000000034001005)skewX(3.1805546498063074e-15)scale(1.0000000099533612,1.0000000099533612)" style="font-size: 10px; font-family: Impact; fill: rgb(132, 60, 57);">somewhere</text><text text-anchor="middle" transform="translate(-198,-50)rotate(-26.000000034001005)skewX(3.1805546498063074e-15)scale(1.0000000099533612,1.0000000099533612)" style="font-size: 10px; font-family: Impact; fill: rgb(173, 73, 74);">central</text><text text-anchor="middle" transform="translate(191,166)rotate(-26.000000034001005)skewX(3.1805546498063074e-15)scale(1.0000000099533612,1.0000000099533612)" style="font-size: 10px; font-family: Impact; fill: rgb(214, 97, 107);">horizontal</text><text text-anchor="middle" transform="translate(102,117)rotate(-26.000000034001005)skewX(3.1805546498063074e-15)scale(1.0000000099533612,1.0000000099533612)" style="font-size: 10px; font-family: Impact; fill: rgb(231, 150, 156);">line</text><text text-anchor="middle" transform="translate(182,52)rotate(-26.000000034001005)skewX(3.1805546498063074e-15)scale(1.0000000099533612,1.0000000099533612)" style="font-size: 10px; font-family: Impact; fill: rgb(123, 65, 115);">intersects</text><text text-anchor="middle" transform="translate(-3,-26)rotate(-26.000000034001005)skewX(3.1805546498063074e-15)scale(1.0000000099533612,1.0000000099533612)" style="font-size: 10px; font-family: Impact; fill: rgb(165, 81, 148);">one</text><text text-anchor="middle" transform="translate(-50,42)rotate(-26.000000034001005)skewX(3.1805546498063074e-15)scale(1.0000000099533612,1.0000000099533612)" style="font-size: 10px; font-family: Impact; fill: rgb(206, 109, 189);">along</text><text text-anchor="middle" transform="translate(221,21)rotate(-26.000000034001005)skewX(3.1805546498063074e-15)scale(1.0000000099533612,1.0000000099533612)" style="font-size: 10px; font-family: Impact; fill: rgb(222, 158, 214);">increasing</text><text text-anchor="middle" transform="translate(-197,135)rotate(-26.000000034001005)skewX(3.1805546498063074e-15)scale(1.0000000099533612,1.0000000099533612)" style="font-size: 10px; font-family: Impact; fill: rgb(57, 59, 121);">spiral</text><text text-anchor="middle" transform="translate(-210,30)rotate(-26.000000034001005)skewX(3.1805546498063074e-15)scale(1.0000000099533612,1.0000000099533612)" style="font-size: 10px; font-family: Impact; fill: rgb(82, 84, 163);">Repeat</text><text text-anchor="middle" transform="translate(188,183)rotate(-26.000000034001005)skewX(3.1805546498063074e-15)scale(1.0000000099533612,1.0000000099533612)" style="font-size: 10px; font-family: Impact; fill: rgb(107, 110, 207);">intersections</text><text text-anchor="middle" transform="translate(215,-39)rotate(-26.000000034001005)skewX(3.1805546498063074e-15)scale(1.0000000099533612,1.0000000099533612)" style="font-size: 10px; font-family: Impact; fill: rgb(156, 158, 222);">found</text><text text-anchor="middle" transform="translate(-230,-147)rotate(-26.000000034001005)skewX(3.1805546498063074e-15)scale(1.0000000099533612,1.0000000099533612)" style="font-size: 10px; font-family: Impact; fill: rgb(99, 121, 57);">hard</text><text text-anchor="middle" transform="translate(165,-12)rotate(-26.000000034001005)skewX(3.1805546498063074e-15)scale(1.0000000099533612,1.0000000099533612)" style="font-size: 10px; font-family: Impact; fill: rgb(140, 162, 82);">part</text><text text-anchor="middle" transform="translate(154,185)rotate(-26.000000034001005)skewX(3.1805546498063074e-15)scale(1.0000000099533612,1.0000000099533612)" style="font-size: 10px; font-family: Impact; fill: rgb(181, 207, 107);">making</text><text text-anchor="middle" transform="translate(80,-171)rotate(-26.000000034001005)skewX(3.1805546498063074e-15)scale(1.0000000099533612,1.0000000099533612)" style="font-size: 10px; font-family: Impact; fill: rgb(206, 219, 156);">efficiently</text><text text-anchor="middle" transform="translate(-184,-118)rotate(-26.000000034001005)skewX(3.1805546498063074e-15)scale(1.0000000099533612,1.0000000099533612)" style="font-size: 10px; font-family: Impact; fill: rgb(140, 109, 49);">According</text><text text-anchor="middle" transform="translate(-40,194)rotate(-26.000000034001005)skewX(3.1805546498063074e-15)scale(1.0000000099533612,1.0000000099533612)" style="font-size: 10px; font-family: Impact; fill: rgb(189, 158, 57);">Jonathan</text><text text-anchor="middle" transform="translate(225,32)rotate(-26.000000034001005)skewX(3.1805546498063074e-15)scale(1.0000000099533612,1.0000000099533612)" style="font-size: 10px; font-family: Impact; fill: rgb(231, 186, 82);">Feinberg</text><text text-anchor="middle" transform="translate(-205,-22)rotate(-26.000000034001005)skewX(3.1805546498063074e-15)scale(1.0000000099533612,1.0000000099533612)" style="font-size: 10px; font-family: Impact; fill: rgb(231, 203, 148);">Wordle</text><text text-anchor="middle" transform="translate(236,46)rotate(-26.000000034001005)skewX(3.1805546498063074e-15)scale(1.0000000099533612,1.0000000099533612)" style="font-size: 10px; font-family: Impact; fill: rgb(132, 60, 57);">uses</text><text text-anchor="middle" transform="translate(264,46)rotate(-26.000000034001005)skewX(3.1805546498063074e-15)scale(1.0000000099533612,1.0000000099533612)" style="font-size: 10px; font-family: Impact; fill: rgb(173, 73, 74);">combination</text><text text-anchor="middle" transform="translate(-132,77)rotate(-26.000000034001005)skewX(3.1805546498063074e-15)scale(1.0000000099533612,1.0000000099533612)" style="font-size: 10px; font-family: Impact; fill: rgb(214, 97, 107);">boxes</text><text text-anchor="middle" transform="translate(-210,58)rotate(-26.000000034001005)skewX(3.1805546498063074e-15)scale(1.0000000099533612,1.0000000099533612)" style="font-size: 10px; font-family: Impact; fill: rgb(231, 150, 156);">quadtrees</text><text text-anchor="middle" transform="translate(261,0)rotate(-26.000000034001005)skewX(3.1805546498063074e-15)scale(1.0000000099533612,1.0000000099533612)" style="font-size: 10px; font-family: Impact; fill: rgb(123, 65, 115);">achieve</text><text text-anchor="middle" transform="translate(244,-81)rotate(-26.000000034001005)skewX(3.1805546498063074e-15)scale(1.0000000099533612,1.0000000099533612)" style="font-size: 10px; font-family: Impact; fill: rgb(165, 81, 148);">reasonable</text><text text-anchor="middle" transform="translate(121,-172)rotate(-26.000000034001005)skewX(3.1805546498063074e-15)scale(1.0000000099533612,1.0000000099533612)" style="font-size: 10px; font-family: Impact; fill: rgb(206, 109, 189);">speeds</text><text text-anchor="middle" transform="translate(-102,164)rotate(-26.000000034001005)skewX(3.1805546498063074e-15)scale(1.0000000099533612,1.0000000099533612)" style="font-size: 10px; font-family: Impact; fill: rgb(222, 158, 214);">Glyphs</text><text text-anchor="middle" transform="translate(253,-50)rotate(-26.000000034001005)skewX(3.1805546498063074e-15)scale(1.0000000099533612,1.0000000099533612)" style="font-size: 10px; font-family: Impact; fill: rgb(57, 59, 121);">JavaScript</text><text text-anchor="middle" transform="translate(-203,70)rotate(-26.000000034001005)skewX(3.1805546498063074e-15)scale(1.0000000099533612,1.0000000099533612)" style="font-size: 10px; font-family: Impact; fill: rgb(82, 84, 163);">isnt</text><text text-anchor="middle" transform="translate(235,-118)rotate(-26.000000034001005)skewX(3.1805546498063074e-15)scale(1.0000000099533612,1.0000000099533612)" style="font-size: 10px; font-family: Impact; fill: rgb(107, 110, 207);">way</text><text text-anchor="middle" transform="translate(-186,-102)rotate(-26.000000034001005)skewX(3.1805546498063074e-15)scale(1.0000000099533612,1.0000000099533612)" style="font-size: 10px; font-family: Impact; fill: rgb(156, 158, 222);">precise</text><text text-anchor="middle" transform="translate(95,-5)rotate(-26.000000034001005)skewX(3.1805546498063074e-15)scale(1.0000000099533612,1.0000000099533612)" style="font-size: 10px; font-family: Impact; fill: rgb(99, 121, 57);">glyph</text><text text-anchor="middle" transform="translate(-208,125)rotate(-26.000000034001005)skewX(3.1805546498063074e-15)scale(1.0000000099533612,1.0000000099533612)" style="font-size: 10px; font-family: Impact; fill: rgb(140, 162, 82);">shapes</text><text text-anchor="middle" transform="translate(29,-73)rotate(-26.000000034001005)skewX(3.1805546498063074e-15)scale(1.0000000099533612,1.0000000099533612)" style="font-size: 10px; font-family: Impact; fill: rgb(181, 207, 107);">via</text><text text-anchor="middle" transform="translate(233,-1)rotate(-26.000000034001005)skewX(3.1805546498063074e-15)scale(1.0000000099533612,1.0000000099533612)" style="font-size: 10px; font-family: Impact; fill: rgb(206, 219, 156);">DOM</text><text text-anchor="middle" transform="translate(258,28)rotate(-26.000000034001005)skewX(3.1805546498063074e-15)scale(1.0000000099533612,1.0000000099533612)" style="font-size: 10px; font-family: Impact; fill: rgb(140, 109, 49);">except</text><text text-anchor="middle" transform="translate(191,194)rotate(-26.000000034001005)skewX(3.1805546498063074e-15)scale(1.0000000099533612,1.0000000099533612)" style="font-size: 10px; font-family: Impact; fill: rgb(189, 158, 57);">perhaps</text><text text-anchor="middle" transform="translate(245,179)rotate(-26.000000034001005)skewX(3.1805546498063074e-15)scale(1.0000000099533612,1.0000000099533612)" style="font-size: 10px; font-family: Impact; fill: rgb(231, 186, 82);">SVG</text><text text-anchor="middle" transform="translate(186,-102)rotate(-26.000000034001005)skewX(3.1805546498063074e-15)scale(1.0000000099533612,1.0000000099533612)" style="font-size: 10px; font-family: Impact; fill: rgb(231, 203, 148);">fonts</text><text text-anchor="middle" transform="translate(-180,88)rotate(-26.000000034001005)skewX(3.1805546498063074e-15)scale(1.0000000099533612,1.0000000099533612)" style="font-size: 10px; font-family: Impact; fill: rgb(132, 60, 57);">Instead</text><text text-anchor="middle" transform="translate(253,-113)rotate(-26.000000034001005)skewX(3.1805546498063074e-15)scale(1.0000000099533612,1.0000000099533612)" style="font-size: 10px; font-family: Impact; fill: rgb(173, 73, 74);">hidden</text><text text-anchor="middle" transform="translate(102,192)rotate(-26.000000034001005)skewX(3.1805546498063074e-15)scale(1.0000000099533612,1.0000000099533612)" style="font-size: 10px; font-family: Impact; fill: rgb(214, 97, 107);">canvas</text><text text-anchor="middle" transform="translate(-230,151)rotate(-26.000000034001005)skewX(3.1805546498063074e-15)scale(1.0000000099533612,1.0000000099533612)" style="font-size: 10px; font-family: Impact; fill: rgb(231, 150, 156);">element</text><text text-anchor="middle" transform="translate(-255,-148)rotate(-26.000000034001005)skewX(3.1805546498063074e-15)scale(1.0000000099533612,1.0000000099533612)" style="font-size: 10px; font-family: Impact; fill: rgb(123, 65, 115);">Retrieving</text><text text-anchor="middle" transform="translate(256,-74)rotate(-26.000000034001005)skewX(3.1805546498063074e-15)scale(1.0000000099533612,1.0000000099533612)" style="font-size: 10px; font-family: Impact; fill: rgb(165, 81, 148);">many</text><text text-anchor="middle" transform="translate(186,-174)rotate(-26.000000034001005)skewX(3.1805546498063074e-15)scale(1.0000000099533612,1.0000000099533612)" style="font-size: 10px; font-family: Impact; fill: rgb(206, 109, 189);">batch</text><text text-anchor="middle" transform="translate(262,-104)rotate(-26.000000034001005)skewX(3.1805546498063074e-15)scale(1.0000000099533612,1.0000000099533612)" style="font-size: 10px; font-family: Impact; fill: rgb(222, 158, 214);">Sprites</text><text text-anchor="middle" transform="translate(-65,-116)rotate(-26.000000034001005)skewX(3.1805546498063074e-15)scale(1.0000000099533612,1.0000000099533612)" style="font-size: 10px; font-family: Impact; fill: rgb(57, 59, 121);">initial</text><text text-anchor="middle" transform="translate(-158,-89)rotate(-26.000000034001005)skewX(3.1805546498063074e-15)scale(1.0000000099533612,1.0000000099533612)" style="font-size: 10px; font-family: Impact; fill: rgb(82, 84, 163);">performed</text><text text-anchor="middle" transform="translate(263,-41)rotate(-26.000000034001005)skewX(3.1805546498063074e-15)scale(1.0000000099533612,1.0000000099533612)" style="font-size: 10px; font-family: Impact; fill: rgb(107, 110, 207);">using</text><text text-anchor="middle" transform="translate(-50,-171)rotate(-26.000000034001005)skewX(3.1805546498063074e-15)scale(1.0000000099533612,1.0000000099533612)" style="font-size: 10px; font-family: Impact; fill: rgb(156, 158, 222);">doesnt</text><text text-anchor="middle" transform="translate(-217,21)rotate(-26.000000034001005)skewX(3.1805546498063074e-15)scale(1.0000000099533612,1.0000000099533612)" style="font-size: 10px; font-family: Impact; fill: rgb(99, 121, 57);">copy</text><text text-anchor="middle" transform="translate(110,207)rotate(-26.000000034001005)skewX(3.1805546498063074e-15)scale(1.0000000099533612,1.0000000099533612)" style="font-size: 10px; font-family: Impact; fill: rgb(140, 162, 82);">appropriate</text><text text-anchor="middle" transform="translate(-98,176)rotate(-26.000000034001005)skewX(3.1805546498063074e-15)scale(1.0000000099533612,1.0000000099533612)" style="font-size: 10px; font-family: Impact; fill: rgb(181, 207, 107);">position</text><text text-anchor="middle" transform="translate(-130,-181)rotate(-26.000000034001005)skewX(3.1805546498063074e-15)scale(1.0000000099533612,1.0000000099533612)" style="font-size: 10px; font-family: Impact; fill: rgb(206, 219, 156);">representing</text><text text-anchor="middle" transform="translate(-132,161)rotate(-26.000000034001005)skewX(3.1805546498063074e-15)scale(1.0000000099533612,1.0000000099533612)" style="font-size: 10px; font-family: Impact; fill: rgb(140, 109, 49);">advantage</text><text text-anchor="middle" transform="translate(270,-17)rotate(-26.000000034001005)skewX(3.1805546498063074e-15)scale(1.0000000099533612,1.0000000099533612)" style="font-size: 10px; font-family: Impact; fill: rgb(189, 158, 57);">involves</text><text text-anchor="middle" transform="translate(296,46)rotate(-26.000000034001005)skewX(3.1805546498063074e-15)scale(1.0000000099533612,1.0000000099533612)" style="font-size: 10px; font-family: Impact; fill: rgb(231, 186, 82);">relevant</text><text text-anchor="middle" transform="translate(13,147)rotate(-26.000000034001005)skewX(3.1805546498063074e-15)scale(1.0000000099533612,1.0000000099533612)" style="font-size: 10px; font-family: Impact; fill: rgb(231, 203, 148);">rather</text><text text-anchor="middle" transform="translate(25,-182)rotate(-26.000000034001005)skewX(3.1805546498063074e-15)scale(1.0000000099533612,1.0000000099533612)" style="font-size: 10px; font-family: Impact; fill: rgb(132, 60, 57);">previous</text><text text-anchor="middle" transform="translate(-143,181)rotate(-26.000000034001005)skewX(3.1805546498063074e-15)scale(1.0000000099533612,1.0000000099533612)" style="font-size: 10px; font-family: Impact; fill: rgb(173, 73, 74);">Somewhat</text><text text-anchor="middle" transform="translate(243,-162)rotate(-26.000000034001005)skewX(3.1805546498063074e-15)scale(1.0000000099533612,1.0000000099533612)" style="font-size: 10px; font-family: Impact; fill: rgb(214, 97, 107);">surprisingly</text><text text-anchor="middle" transform="translate(262,186)rotate(-26.000000034001005)skewX(3.1805546498063074e-15)scale(1.0000000099533612,1.0000000099533612)" style="font-size: 10px; font-family: Impact; fill: rgb(231, 150, 156);">lowlevel</text><text text-anchor="middle" transform="translate(266,170)rotate(-26.000000034001005)skewX(3.1805546498063074e-15)scale(1.0000000099533612,1.0000000099533612)" style="font-size: 10px; font-family: Impact; fill: rgb(123, 65, 115);">hack</text><text text-anchor="middle" transform="translate(-227,-92)rotate(-26.000000034001005)skewX(3.1805546498063074e-15)scale(1.0000000099533612,1.0000000099533612)" style="font-size: 10px; font-family: Impact; fill: rgb(165, 81, 148);">made</text><text text-anchor="middle" transform="translate(-241,90)rotate(-26.000000034001005)skewX(3.1805546498063074e-15)scale(1.0000000099533612,1.0000000099533612)" style="font-size: 10px; font-family: Impact; fill: rgb(206, 109, 189);">tremendous</text><text text-anchor="middle" transform="translate(-240,58)rotate(-26.000000034001005)skewX(3.1805546498063074e-15)scale(1.0000000099533612,1.0000000099533612)" style="font-size: 10px; font-family: Impact; fill: rgb(222, 158, 214);">difference</text><text text-anchor="middle" transform="translate(212,-173)rotate(-26.000000034001005)skewX(3.1805546498063074e-15)scale(1.0000000099533612,1.0000000099533612)" style="font-size: 10px; font-family: Impact; fill: rgb(57, 59, 121);">constructing</text><text text-anchor="middle" transform="translate(-69,-189)rotate(-26.000000034001005)skewX(3.1805546498063074e-15)scale(1.0000000099533612,1.0000000099533612)" style="font-size: 10px; font-family: Impact; fill: rgb(82, 84, 163);">compressed</text><text text-anchor="middle" transform="translate(265,11)rotate(-26.000000034001005)skewX(3.1805546498063074e-15)scale(1.0000000099533612,1.0000000099533612)" style="font-size: 10px; font-family: Impact; fill: rgb(107, 110, 207);">blocks</text><text text-anchor="middle" transform="translate(-55,-182)rotate(-26.000000034001005)skewX(3.1805546498063074e-15)scale(1.0000000099533612,1.0000000099533612)" style="font-size: 10px; font-family: Impact; fill: rgb(156, 158, 222);">1bit</text><text text-anchor="middle" transform="translate(280,-86)rotate(-26.000000034001005)skewX(3.1805546498063074e-15)scale(1.0000000099533612,1.0000000099533612)" style="font-size: 10px; font-family: Impact; fill: rgb(99, 121, 57);">32bit</text><text text-anchor="middle" transform="translate(-177,-185)rotate(-26.000000034001005)skewX(3.1805546498063074e-15)scale(1.0000000099533612,1.0000000099533612)" style="font-size: 10px; font-family: Impact; fill: rgb(140, 162, 82);">integers</text><text text-anchor="middle" transform="translate(-41,56)rotate(-26.000000034001005)skewX(3.1805546498063074e-15)scale(1.0000000099533612,1.0000000099533612)" style="font-size: 10px; font-family: Impact; fill: rgb(181, 207, 107);">thus</text><text text-anchor="middle" transform="translate(255,-152)rotate(-26.000000034001005)skewX(3.1805546498063074e-15)scale(1.0000000099533612,1.0000000099533612)" style="font-size: 10px; font-family: Impact; fill: rgb(206, 219, 156);">reducing</text><text text-anchor="middle" transform="translate(-262,-21)rotate(-26.000000034001005)skewX(3.1805546498063074e-15)scale(1.0000000099533612,1.0000000099533612)" style="font-size: 10px; font-family: Impact; fill: rgb(140, 109, 49);">number</text><text text-anchor="middle" transform="translate(279,-34)rotate(-26.000000034001005)skewX(3.1805546498063074e-15)scale(1.0000000099533612,1.0000000099533612)" style="font-size: 10px; font-family: Impact; fill: rgb(189, 158, 57);">checks</text><text text-anchor="middle" transform="translate(-178,162)rotate(-26.000000034001005)skewX(3.1805546498063074e-15)scale(1.0000000099533612,1.0000000099533612)" style="font-size: 10px; font-family: Impact; fill: rgb(231, 186, 82);">memory</text><text text-anchor="middle" transform="translate(-252,-79)rotate(-26.000000034001005)skewX(3.1805546498063074e-15)scale(1.0000000099533612,1.0000000099533612)" style="font-size: 10px; font-family: Impact; fill: rgb(231, 203, 148);">times</text><text text-anchor="middle" transform="translate(277,-134)rotate(-26.000000034001005)skewX(3.1805546498063074e-15)scale(1.0000000099533612,1.0000000099533612)" style="font-size: 10px; font-family: Impact; fill: rgb(132, 60, 57);">fact</text><text text-anchor="middle" transform="translate(-111,-128)rotate(-26.000000034001005)skewX(3.1805546498063074e-15)scale(1.0000000099533612,1.0000000099533612)" style="font-size: 10px; font-family: Impact; fill: rgb(173, 73, 74);">turned</text><text text-anchor="middle" transform="translate(280,-149)rotate(-26.000000034001005)skewX(3.1805546498063074e-15)scale(1.0000000099533612,1.0000000099533612)" style="font-size: 10px; font-family: Impact; fill: rgb(214, 97, 107);">beat</text><text text-anchor="middle" transform="translate(-143,-189)rotate(-26.000000034001005)skewX(3.1805546498063074e-15)scale(1.0000000099533612,1.0000000099533612)" style="font-size: 10px; font-family: Impact; fill: rgb(231, 150, 156);">quadtree</text><text text-anchor="middle" transform="translate(296,-108)rotate(-26.000000034001005)skewX(3.1805546498063074e-15)scale(1.0000000099533612,1.0000000099533612)" style="font-size: 10px; font-family: Impact; fill: rgb(123, 65, 115);">everything</text><text text-anchor="middle" transform="translate(290,158)rotate(-26.000000034001005)skewX(3.1805546498063074e-15)scale(1.0000000099533612,1.0000000099533612)" style="font-size: 10px; font-family: Impact; fill: rgb(165, 81, 148);">tried</text><text text-anchor="middle" transform="translate(287,14)rotate(-26.000000034001005)skewX(3.1805546498063074e-15)scale(1.0000000099533612,1.0000000099533612)" style="font-size: 10px; font-family: Impact; fill: rgb(206, 109, 189);">areas</text><text text-anchor="middle" transform="translate(-221,-165)rotate(-26.000000034001005)skewX(3.1805546498063074e-15)scale(1.0000000099533612,1.0000000099533612)" style="font-size: 10px; font-family: Impact; fill: rgb(222, 158, 214);">font</text><text text-anchor="middle" transform="translate(-35,-190)rotate(-26.000000034001005)skewX(3.1805546498063074e-15)scale(1.0000000099533612,1.0000000099533612)" style="font-size: 10px; font-family: Impact; fill: rgb(57, 59, 121);">sizes</text><text text-anchor="middle" transform="translate(-249,111)rotate(-26.000000034001005)skewX(3.1805546498063074e-15)scale(1.0000000099533612,1.0000000099533612)" style="font-size: 10px; font-family: Impact; fill: rgb(82, 84, 163);">primarily</text><text text-anchor="middle" transform="translate(-209,-183)rotate(-26.000000034001005)skewX(3.1805546498063074e-15)scale(1.0000000099533612,1.0000000099533612)" style="font-size: 10px; font-family: Impact; fill: rgb(107, 110, 207);">needs</text><text text-anchor="middle" transform="translate(-151,60)rotate(-26.000000034001005)skewX(3.1805546498063074e-15)scale(1.0000000099533612,1.0000000099533612)" style="font-size: 10px; font-family: Impact; fill: rgb(156, 158, 222);">test</text><text text-anchor="middle" transform="translate(-188,-6)rotate(-26.000000034001005)skewX(3.1805546498063074e-15)scale(1.0000000099533612,1.0000000099533612)" style="font-size: 10px; font-family: Impact; fill: rgb(99, 121, 57);">per</text><text text-anchor="middle" transform="translate(296,-60)rotate(-26.000000034001005)skewX(3.1805546498063074e-15)scale(1.0000000099533612,1.0000000099533612)" style="font-size: 10px; font-family: Impact; fill: rgb(140, 162, 82);">whereas</text><text text-anchor="middle" transform="translate(303,-18)rotate(-26.000000034001005)skewX(3.1805546498063074e-15)scale(1.0000000099533612,1.0000000099533612)" style="font-size: 10px; font-family: Impact; fill: rgb(181, 207, 107);">compare</text><text text-anchor="middle" transform="translate(-62,181)rotate(-26.000000034001005)skewX(3.1805546498063074e-15)scale(1.0000000099533612,1.0000000099533612)" style="font-size: 10px; font-family: Impact; fill: rgb(206, 219, 156);">every</text><text text-anchor="middle" transform="translate(123,-185)rotate(-26.000000034001005)skewX(3.1805546498063074e-15)scale(1.0000000099533612,1.0000000099533612)" style="font-size: 10px; font-family: Impact; fill: rgb(140, 109, 49);">overlaps</text><text text-anchor="middle" transform="translate(159,-184)rotate(-26.000000034001005)skewX(3.1805546498063074e-15)scale(1.0000000099533612,1.0000000099533612)" style="font-size: 10px; font-family: Impact; fill: rgb(189, 158, 57);">slightly</text><text text-anchor="middle" transform="translate(84,-189)rotate(-26.000000034001005)skewX(3.1805546498063074e-15)scale(1.0000000099533612,1.0000000099533612)" style="font-size: 10px; font-family: Impact; fill: rgb(231, 186, 82);">Another</text><text text-anchor="middle" transform="translate(23,-196)rotate(-26.000000034001005)skewX(3.1805546498063074e-15)scale(1.0000000099533612,1.0000000099533612)" style="font-size: 10px; font-family: Impact; fill: rgb(231, 203, 148);">possibility</text><text text-anchor="middle" transform="translate(-243,143)rotate(-26.000000034001005)skewX(3.1805546498063074e-15)scale(1.0000000099533612,1.0000000099533612)" style="font-size: 10px; font-family: Impact; fill: rgb(132, 60, 57);">merge</text><text text-anchor="middle" transform="translate(-244,127)rotate(-26.000000034001005)skewX(3.1805546498063074e-15)scale(1.0000000099533612,1.0000000099533612)" style="font-size: 10px; font-family: Impact; fill: rgb(173, 73, 74);">fairly</text><text text-anchor="middle" transform="translate(297,60)rotate(-26.000000034001005)skewX(3.1805546498063074e-15)scale(1.0000000099533612,1.0000000099533612)" style="font-size: 10px; font-family: Impact; fill: rgb(214, 97, 107);">though</text><text text-anchor="middle" transform="translate(-247,23)rotate(-26.000000034001005)skewX(3.1805546498063074e-15)scale(1.0000000099533612,1.0000000099533612)" style="font-size: 10px; font-family: Impact; fill: rgb(231, 150, 156);">compared</text><text text-anchor="middle" transform="translate(-181,177)rotate(-26.000000034001005)skewX(3.1805546498063074e-15)scale(1.0000000099533612,1.0000000099533612)" style="font-size: 10px; font-family: Impact; fill: rgb(123, 65, 115);">analagous</text><text text-anchor="middle" transform="translate(297,20)rotate(-26.000000034001005)skewX(3.1805546498063074e-15)scale(1.0000000099533612,1.0000000099533612)" style="font-size: 10px; font-family: Impact; fill: rgb(165, 81, 148);">mask</text><text text-anchor="middle" transform="translate(51,205)rotate(-26.000000034001005)skewX(3.1805546498063074e-15)scale(1.0000000099533612,1.0000000099533612)" style="font-size: 10px; font-family: Impact; fill: rgb(206, 109, 189);">essentially</text><text text-anchor="middle" transform="translate(-240,42)rotate(-26.000000034001005)skewX(3.1805546498063074e-15)scale(1.0000000099533612,1.0000000099533612)" style="font-size: 10px; font-family: Impact; fill: rgb(222, 158, 214);">ORing</text><text text-anchor="middle" transform="translate(-247,79)rotate(-26.000000034001005)skewX(3.1805546498063074e-15)scale(1.0000000099533612,1.0000000099533612)" style="font-size: 10px; font-family: Impact; fill: rgb(57, 59, 121);">block</text><text text-anchor="middle" transform="translate(-33,43)rotate(-26.000000034001005)skewX(3.1805546498063074e-15)scale(1.0000000099533612,1.0000000099533612)" style="font-size: 10px; font-family: Impact; fill: rgb(82, 84, 163);"></text></g></svg>